<svg width="36" height="30" viewBox="0 0 36 30" fill="none" xmlns="http://www.w3.org/2000/svg">
<path d="M16.7808 26.9641C16.737 26.6142 16.1519 26.0632 15.9805 25.7204C15.2873 24.3338 14.2574 23.1822 13.6184 21.7577C13.1547 20.7242 12.359 19.9815 11.8636 18.9906C11.1977 17.6589 10.5995 16.2815 9.94493 14.9411C9.56446 14.162 9.33612 13.2709 8.87472 12.5404C8.37846 11.7546 7.71927 11.0879 7.33207 10.236C6.93715 9.36721 6.36462 8.59594 5.75086 7.87386C5.24833 7.28265 5.25648 6.37312 4.97953 5.65631C4.62986 4.75127 4.49386 3.65315 4.24678 2.70599C4.09389 2.11994 3.66121 1.7188 3.57686 1.64614M3.57686 1.64614C3.55876 1.63056 3.5567 1.63009 3.57686 1.64614ZM3.57686 1.64614C3.63075 1.68907 3.8435 1.85014 4.33355 2.15642C6.37329 3.43126 8.89797 3.40968 10.7163 5.00068C11.2986 5.5102 12.1286 5.5177 12.8278 5.79129C13.7998 6.17166 14.7233 6.45698 15.7781 6.58189C19.6401 7.03924 23.3736 7.62136 27.1165 8.66447C27.9705 8.90245 29.1562 9.0887 30.0572 9.0887C30.3388 9.0887 31.4545 8.9114 31.2431 9.45507C30.8481 10.4708 29.6468 11.3063 28.9291 12.0776C27.84 13.2481 26.7343 14.3907 25.6124 15.5292C23.7357 17.434 22.098 19.55 20.5313 21.7191C20.0674 22.3616 19.4424 22.8655 19.0369 23.5896C18.7823 24.0443 18.3748 24.4547 18.1692 24.9201C17.9967 25.3105 17.9254 25.8195 17.6485 26.0964M6.88829 3.01455C6.54727 3.09033 6.43538 3.79497 6.42695 4.63597M6.42695 4.63597C6.42564 4.76605 6.42681 4.89941 6.43 5.0342M6.42695 4.63597C6.56025 5.07508 6.71502 5.50363 6.88036 5.92692M6.42695 4.63597C6.37845 4.47621 6.3328 4.31506 6.29051 4.15225C6.12552 3.51703 5.95864 2.77403 5.69273 2.17574C5.37192 1.45391 5.92485 3.75067 6.20374 4.48971C6.27352 4.67463 6.34934 4.85588 6.43 5.0342M6.43 5.0342C6.456 6.13609 6.61634 7.33423 6.65689 7.63285C6.82911 8.90104 7.28975 9.91093 7.85244 11.0363C8.26531 11.8621 8.31107 12.7892 8.72018 13.6203C9.03039 14.2504 8.97715 13.5934 8.96122 13.2828C8.90458 12.1783 8.72983 11.0906 8.44058 10.024C8.37566 9.78456 8.30362 9.54859 8.22617 9.31522M6.43 5.0342C6.56793 5.33914 6.72004 5.63549 6.88036 5.92692M8.22617 9.31522C7.94238 8.46006 7.58595 7.63973 7.24082 6.81341M8.22617 9.31522C8.02233 9.87928 7.95801 9.47835 7.91029 9.15622C7.80871 8.47056 7.32296 7.94725 7.25467 7.24719C7.24013 7.09819 7.23596 6.95408 7.24082 6.81341M8.22617 9.31522C8.2301 9.30436 8.23407 9.29314 8.2381 9.28156C8.31847 9.05051 8.37274 8.80944 8.40876 8.56256M7.24082 6.81341C7.11797 6.51929 6.99656 6.2244 6.88036 5.92692M7.24082 6.81341C7.2435 6.73578 7.24893 6.65919 7.25688 6.58342M6.88036 5.92692C7.002 6.14805 7.12838 6.36635 7.25688 6.58342M7.25688 6.58342C7.53702 7.05662 7.82727 7.524 8.10072 8.00218M7.25688 6.58342C7.30606 6.11485 7.4517 5.67714 7.64033 5.21282C7.76446 4.90727 8.04028 4.42367 8.35804 4.16286M8.10072 8.00218C8.10153 8.0036 8.10234 8.00502 8.10315 8.00643M8.10072 8.00218C8.09432 6.80569 8.08916 5.60514 8.28631 4.42222C8.29129 4.39234 8.31967 4.28902 8.35804 4.16286M8.10072 8.00218C8.1019 8.22314 8.10312 8.44395 8.10312 8.6645V8.0378C8.10312 8.02734 8.10313 8.01689 8.10315 8.00643M8.10315 8.00643C8.20801 8.1899 8.31039 8.37496 8.40876 8.56256M8.10315 8.00643C8.10459 7.15918 8.16462 6.32317 8.27667 5.48279C8.44095 4.25071 8.51154 4.93838 8.51238 5.64531M8.40876 8.56256C8.40972 8.5644 8.41069 8.56624 8.41165 8.56808C8.42947 8.6021 8.52449 8.86823 8.57862 8.93539M8.40876 8.56256C8.44715 8.29938 8.46479 8.02959 8.47117 7.7583M8.57862 8.93539C8.5959 8.95683 8.60902 8.95799 8.61412 8.92482C8.73865 8.11542 8.62376 7.20726 8.62376 6.38909V5.42173M8.57862 8.93539C8.53314 8.54399 8.49332 8.15305 8.47117 7.7583M8.57862 8.93539C8.64988 9.54873 8.735 10.1632 8.78767 10.7953C8.81302 11.0994 8.79829 11.4469 9.04799 10.9399C9.45582 10.1119 9.67196 9.20746 9.80003 8.29812C9.9166 7.47049 10.218 5.45354 9.93501 7.55572C9.68902 9.38309 9.8386 11.2976 9.8386 13.1382C9.8386 14.1318 9.94546 14.933 10.6678 13.6395C11.0389 12.9749 11.2332 12.3266 11.4198 11.5955C11.4397 11.5178 11.4614 11.441 11.4845 11.365M8.62376 5.42173V4.00778M8.62376 5.42173C8.5782 5.48239 8.54071 5.55648 8.51238 5.64531M8.62376 5.42173C8.8662 5.09896 9.33724 5.15615 9.87337 5.39313M8.62376 4.00778V3.60269C8.62376 3.35603 8.45741 3.83605 8.35804 4.16286M8.62376 4.00778C8.82682 3.94035 9.03442 3.99662 9.22154 4.26795C9.46941 4.62737 9.68077 5.00508 9.87337 5.39313M8.62376 4.00778C8.53356 4.03773 8.44425 4.09209 8.35804 4.16286M8.51238 5.64531C8.51268 5.89214 8.50447 6.14133 8.48878 6.31196C8.47571 6.45417 8.4665 6.59532 8.46065 6.73556M8.51238 5.64531C8.47199 5.77198 8.45022 5.92863 8.45022 6.11913C8.45022 6.31995 8.45522 6.52625 8.46065 6.73556M8.46065 6.73556C8.44625 7.08103 8.45226 7.42105 8.47117 7.7583M8.46065 6.73556C8.46938 7.07207 8.47922 7.41638 8.47117 7.7583M11.4845 11.365C11.5815 11.0469 11.7041 10.7421 11.8243 10.4374M11.4845 11.365C11.4304 11.2325 11.3899 11.1018 11.362 10.9978C11.179 10.3157 11.0451 9.20979 11.1861 8.34357M11.4845 11.365C11.5517 11.5293 11.6399 11.6964 11.7512 11.8187M11.8243 10.4374C11.8563 10.3563 11.8882 10.2751 11.9193 10.1937M11.8243 10.4374C11.8452 10.1482 11.8711 9.85854 11.9087 9.57096M11.8243 10.4374C11.8099 10.6375 11.7979 10.8374 11.7862 11.0363C11.7709 11.2968 11.7595 11.5577 11.7512 11.8187M11.9193 10.1937C12.0549 9.83941 12.1772 9.48056 12.2422 9.0965M11.9193 10.1937C11.9155 10.6787 11.9058 11.2909 11.8928 11.9391M11.9193 10.1937C11.9205 10.0437 11.9212 9.90587 11.9212 9.78292C11.9212 9.73587 11.9169 9.66332 11.9087 9.57096M12.2422 9.0965C12.2523 9.0367 12.2611 8.97628 12.2683 8.91518C12.2692 8.90714 12.2702 8.8982 12.2714 8.88844M12.2422 9.0965C12.2005 9.60499 12.1256 10.1112 12.1044 10.6217C12.1012 10.6972 12.1404 12.0399 11.979 11.9812C11.9492 11.9703 11.9205 11.9562 11.8928 11.9391M12.2422 9.0965C12.2545 8.94633 12.264 8.79596 12.2683 8.64521C12.2698 8.59259 12.2708 8.70674 12.2714 8.88844M12.2714 8.88844C12.3017 8.62127 12.3894 7.73951 12.3647 7.79676C12.1196 8.36357 11.9881 8.96264 11.9087 9.57096M12.2714 8.88844C12.2724 9.23415 12.2715 9.8244 12.2683 9.97575C12.245 11.0686 11.9872 12.142 11.8642 13.2259M11.9087 9.57096C11.8674 9.10686 11.7271 8.1427 11.5348 7.40218M11.7512 11.8187C11.7183 12.8547 11.7338 13.8946 11.7428 14.9319M11.7512 11.8187C11.7948 11.8667 11.842 11.9078 11.8928 11.9391M11.7428 14.9319C11.745 15.1891 11.7468 15.4461 11.7474 15.7029M11.7428 14.9319C11.7626 14.3923 11.7972 13.8547 11.8537 13.3214C11.8571 13.2895 11.8606 13.2577 11.8642 13.2259M11.7428 14.9319C11.7093 15.8411 11.7178 16.7558 11.7343 17.6648M11.7474 15.7029C11.7476 15.7607 11.7476 15.8185 11.7476 15.8764C11.7476 16.709 11.7768 16.1773 11.8112 15.1198M11.7474 15.7029C11.7281 16.1017 11.7476 16.5067 11.7476 16.8984C11.7476 17.1579 11.7405 17.4133 11.7343 17.6648M11.7474 15.7029C11.7569 15.5062 11.7758 15.3111 11.8112 15.1198M11.8112 15.1198C11.8285 14.5864 11.8472 13.9192 11.8642 13.2259M11.8112 15.1198C11.8653 14.8267 11.9579 14.5426 12.114 14.2759C12.4157 13.7605 12.6325 13.8601 12.7942 14.1607M11.8642 13.2259C11.8746 12.7985 11.8844 12.3612 11.8928 11.9391M11.5348 7.40218C11.3282 6.60629 11.0615 6.06873 10.7931 6.68798C10.7919 6.6908 10.7907 6.69362 10.7895 6.69643M11.5348 7.40218C11.7285 7.11433 11.9342 6.98915 12.1488 6.97553M11.5348 7.40218C11.4927 7.46477 11.4511 7.53506 11.4102 7.61357C11.3504 7.7281 11.3015 7.8567 11.2622 7.9957M10.7895 6.69643C10.7331 6.82687 10.6808 6.95753 10.6323 7.08845M10.7895 6.69643C10.7004 6.4365 10.6146 6.17399 10.5328 5.90701C10.5319 5.90417 10.4899 5.79688 10.435 5.68852M10.7895 6.69643C10.9392 7.13376 11.0981 7.56382 11.2622 7.9957M10.6323 7.08845C10.3651 7.80912 10.2119 8.53738 10.1246 9.27742M10.6323 7.08845C10.7159 7.28006 10.801 7.47146 10.8895 7.66178C10.9939 7.88608 11.0922 8.11388 11.1861 8.34357M10.6323 7.08845C10.4634 6.70151 10.3006 6.3137 10.1279 5.93211M10.1246 9.27742C10.0278 10.098 10.0121 10.9331 10.0121 11.7884C10.0121 13.4632 10.0661 10.1215 10.0989 9.75399C10.1128 9.59839 10.1208 9.43923 10.1246 9.27742ZM10.1246 9.27742C10.1499 8.19297 9.98501 6.98893 10.1279 5.93211M10.1279 5.93211C10.1454 5.80297 10.1674 5.67602 10.195 5.55176M10.1279 5.93211C10.0459 5.75079 9.96158 5.57088 9.87337 5.39313M10.195 5.55176L10.1953 5.55028C10.2384 5.35648 10.3515 5.52374 10.435 5.68852M10.195 5.55176C10.0861 5.49298 9.97849 5.4396 9.87337 5.39313M10.195 5.55176C10.2745 5.59467 10.3546 5.64045 10.435 5.68852M10.435 5.68852C11.0741 6.07092 11.7258 6.59835 12.1488 6.97553M11.2622 7.9957C11.3634 8.26229 11.4667 8.52957 11.5711 8.79968L11.5934 8.85733C11.6133 8.90886 11.8959 9.73287 11.738 9.81184C11.527 9.91732 11.5787 9.36781 11.4969 9.14657C11.3977 8.87801 11.2949 8.60952 11.1861 8.34357M11.2622 7.9957C11.231 8.10575 11.2059 8.22231 11.1861 8.34357M12.1488 6.97553C12.3035 7.1135 12.4276 7.23137 12.5093 7.31468C13.2623 8.08246 14.0828 8.72295 14.6955 9.60272M12.1488 6.97553C12.5265 6.95155 12.9318 7.2732 13.3481 7.66178C13.8454 8.1259 14.2485 8.32219 14.5244 8.99231C14.5878 9.14622 14.6385 9.36879 14.6955 9.60272M14.6955 9.60272C14.7494 9.68014 14.8017 9.7594 14.8522 9.84077C14.8805 9.88637 15.2508 10.7127 15.1222 10.6024C14.9034 10.415 14.7906 9.99302 14.6955 9.60272ZM11.7343 17.6648C11.7414 18.0534 11.7499 18.441 11.7573 18.8267C11.7582 18.8769 11.7584 18.9319 11.7581 18.9907M11.7343 17.6648C11.7232 18.1185 11.7152 18.5597 11.7581 18.9907M11.7581 18.9907C11.7544 19.6908 11.6877 20.9458 12.1911 21.4492C12.1976 21.4556 12.1848 20.4637 12.0947 20.2729C11.8971 19.8545 11.8015 19.4279 11.7581 18.9907ZM12.7942 14.1607C12.9848 14.5152 13.0986 15.1493 13.1842 15.3847C13.4645 16.1554 13.8757 16.8479 14.3235 17.5208M12.7942 14.1607C12.8751 13.6754 12.965 13.1905 13.0492 12.7043C13.1329 12.2213 13.2245 11.3386 13.6567 10.9785C13.7972 10.8613 15.8107 15.9958 15.8935 16.3874C16.0734 17.2378 16.3895 18.9768 16.5501 20.2125M12.7942 14.1607C12.6937 14.7635 12.6072 15.367 12.5626 15.9746M14.3235 17.5208C14.6024 17.9397 14.8955 18.3511 15.18 18.7688C15.4218 19.1238 15.6044 19.4729 15.7653 19.8262M14.3235 17.5208C14.3187 16.528 14.3425 15.5339 14.3508 14.5458C14.3652 12.8359 14.5832 14.122 14.9004 14.8833C15.604 16.5718 15.8247 18.1487 15.7653 19.8262M14.3235 17.5208C14.332 19.2618 14.4287 20.999 14.8522 22.6929C14.8599 22.7235 14.8682 22.7616 14.8774 22.8051M15.7653 19.8262C15.8181 19.9421 15.8686 20.0585 15.9181 20.1757M15.7653 19.8262C15.741 20.5126 15.6698 21.2159 15.5657 21.9505C15.41 23.0484 15.1512 23.1317 14.8774 22.8051M15.9181 20.1757C16.0733 20.5436 16.2186 20.9194 16.3949 21.3142C16.7134 22.0278 16.6946 21.3235 16.5501 20.2125M15.9181 20.1757C15.9133 20.5559 15.901 20.9357 15.8742 21.3142C15.8592 21.526 15.6596 23.982 15.3536 23.8596C15.0652 23.7442 14.9456 23.1261 14.8774 22.8051M15.9181 20.1757C15.9262 19.5298 15.9128 18.8828 15.9128 18.2386C15.9128 18.1312 15.8588 16.2535 16.0092 17.0912C16.1955 18.1294 16.3741 19.1714 16.5501 20.2125M16.5501 20.2125C16.6014 20.5156 16.6524 20.8186 16.7034 21.1214C16.9453 22.5589 16.9466 24.0374 17.6097 25.3637C17.6211 25.3865 17.6328 25.4093 17.6448 25.4321M12.5626 15.9746C12.5532 16.1027 12.5457 16.2309 12.5403 16.3594M12.5626 15.9746C12.4419 15.7469 12.3699 15.7276 12.5403 16.3594M12.5626 15.9746C12.6713 16.1796 12.8196 16.5534 12.866 16.773C13.1717 18.218 13.4273 19.5589 13.9941 20.9382C14.214 21.4733 14.556 22.4217 14.8774 22.8051M12.5403 16.3594C12.5258 16.7045 12.5266 17.051 12.5479 17.3997C12.6476 19.0356 12.7477 21.0206 13.6181 22.4712C13.9453 23.0166 13.2408 21.2503 13.1553 20.62C12.9621 19.1955 12.929 17.7848 12.5479 16.3874C12.5453 16.3779 12.5428 16.3686 12.5403 16.3594ZM17.6448 25.4321C17.6615 25.4641 17.6787 25.496 17.696 25.528M17.6448 25.4321C17.6545 25.4704 17.6684 25.5056 17.6868 25.5372C17.6868 25.5372 17.6903 25.5345 17.696 25.528M17.6448 25.4321C17.4363 24.6077 19.1695 22.2992 19.4801 21.5649C19.5972 21.2882 19.7235 21.019 19.8496 20.7528M17.696 25.528C17.8065 25.7321 17.9229 25.9378 17.9761 26.1639C17.9785 26.1743 17.9886 26.4628 18.0339 26.4628C18.3875 26.4628 18.5137 25.6449 18.5546 25.4408C18.7025 24.7009 19.9999 22.8507 19.4416 23.3582C19.245 23.5369 17.8238 25.3809 17.696 25.528ZM19.8496 20.7528C20.1456 20.1281 20.4408 19.5192 20.6149 18.8647M19.8496 20.7528C18.261 22.129 16.9381 23.0646 17.6675 21.9505C18.431 20.7845 19.2292 19.6084 20.0201 18.4603C20.0791 18.3746 20.7721 17.3084 20.7721 17.7083C20.7721 18.1153 20.7126 18.4972 20.6149 18.8647M19.8496 20.7528C21.1395 19.6353 22.6046 18.2274 23.2886 17.3901L23.2963 17.3807C23.4516 17.1908 24.5929 15.7958 23.5874 16.4356C22.51 17.1212 21.5999 18.0481 20.6149 18.8647M20.6149 18.8647C20.4637 18.99 20.3107 19.1128 20.1551 19.2316C18.9638 20.1416 20.4521 18.5256 20.5986 17.9397M15.9128 9.95643C15.9128 10.0371 15.9127 10.1177 15.9126 10.1983M15.9126 10.1983C15.912 10.4988 15.9106 10.7994 15.9095 11.0999M15.9126 10.1983C16.0214 10.3747 16.0959 10.6307 16.147 10.9144M15.9126 10.1983C15.8393 10.0795 15.7505 9.99682 15.6429 9.96607C15.3207 9.87403 14.876 10.1583 14.4608 10.5902M15.9095 11.0999C15.9092 11.1816 15.9089 11.2632 15.9087 11.3449M15.9095 11.0999C15.3688 11.5163 14.3951 12.2259 13.6515 12.517M15.9095 11.0999C16.0027 11.0281 16.083 10.9651 16.147 10.9144M15.9087 11.3449C15.9075 11.7542 15.9075 12.1635 15.9117 12.5727M15.9087 11.3449C15.9975 11.2545 16.0857 11.1639 16.1728 11.0727M15.9087 11.3449C15.0786 12.1891 14.1926 13.0113 13.6278 14.0541C13.4726 14.3405 15.4185 12.9046 15.7007 12.7139C15.7708 12.6665 15.8412 12.6194 15.9117 12.5727M15.9117 12.5727C15.912 12.6069 15.9124 12.6411 15.9128 12.6753C15.9194 13.2201 15.9807 13.762 16.05 14.3025M15.9117 12.5727C16.0265 12.4967 16.1418 12.4215 16.2576 12.3472M16.05 14.3025C16.0689 14.4496 16.0883 14.5966 16.1074 14.7436M16.05 14.3025C16.1167 14.2284 16.1907 14.1493 16.2682 14.0675M16.05 14.3025C15.7089 14.6818 15.5589 14.9317 16.1074 14.7436M16.1074 14.7436C16.1867 15.3531 16.2599 15.9614 16.2599 16.5705C16.2599 17.4004 16.2683 16.0657 16.2686 14.6836M16.1074 14.7436C16.1556 14.727 16.2093 14.7071 16.2686 14.6836M16.2686 14.6836C16.2687 14.4769 16.2686 14.2692 16.2682 14.0675M16.2686 14.6836C16.411 14.6272 16.5865 14.5501 16.7999 14.4494C17.7126 14.0185 18.5958 13.5174 19.4802 13.0321C19.967 12.7649 21.2522 11.7656 20.9361 12.2222C19.8537 13.7856 18.134 14.9802 16.8577 16.3777C16.7646 16.4796 14.7572 18.7232 16.0093 17.6889C17.9696 16.0695 20.1328 14.7541 22.3534 13.5238C22.7993 13.2767 23.9802 12.4658 23.7611 12.926C23.4244 13.633 22.4835 14.2541 21.8906 14.7194C21.102 15.3381 20.208 15.9164 19.4261 16.5927M16.2682 14.0675C16.2673 13.5495 16.2648 13.0712 16.2599 12.7525C16.2587 12.6736 16.2598 12.5297 16.2576 12.3472M16.2682 14.0675C16.4916 13.8319 16.7441 13.5744 16.9348 13.3503C17.4767 12.7135 17.991 12.0627 18.5835 11.4701C18.6552 11.3985 18.9488 11.1831 19.1744 10.9849M16.2576 12.3472C16.2536 12.0009 16.2379 11.5158 16.1728 11.0727M16.2576 12.3472C16.8934 11.9398 17.546 11.56 18.2182 11.2151M16.1728 11.0727C16.165 11.0192 16.1564 10.9663 16.147 10.9144M16.1728 11.0727C16.2877 10.9525 16.4006 10.8313 16.5106 10.7085C17.4388 9.67177 16.5777 10.5728 16.1635 10.9013C16.1581 10.9056 16.1527 10.9099 16.147 10.9144M14.4608 10.5902C13.8875 11.1866 13.3705 12.0646 13.3095 12.6229M14.4608 10.5902C14.2541 11.1831 14.0139 11.7626 13.7338 12.3282C13.7101 12.3761 13.682 12.4435 13.6515 12.517M14.4608 10.5902C14.5602 10.305 14.6519 10.0165 14.7366 9.72503C14.7929 9.53117 15.2901 8.31023 15.3138 7.79515M13.3095 12.6229C13.2962 12.7444 13.3045 12.8507 13.3385 12.9357C13.4084 13.1103 13.5442 12.7758 13.6515 12.517M13.3095 12.6229C13.1515 12.656 13.0134 12.6575 12.9047 12.6175C12.6824 12.5356 13.6862 10.3356 13.7531 10.2167C13.7541 10.215 14.6118 8.80624 14.1195 9.17546C13.7501 9.45248 13.443 9.82432 13.0975 10.13C12.345 10.7957 11.7475 11.2497 12.654 10.0914C13.2156 9.37378 13.8377 8.64939 14.5365 8.04228M13.3095 12.6229C13.4155 12.6008 13.5304 12.5644 13.6515 12.517M15.3138 7.79515C15.324 7.57296 15.246 7.48212 15.0065 7.66174C14.8461 7.7821 14.6894 7.90938 14.5365 8.04228M15.3138 7.79515C16.0471 7.628 16.8034 7.6091 17.5712 7.49783C17.8786 7.45328 20.2431 6.78889 20.213 6.87113C19.8482 7.86584 18.6808 8.31214 18.1304 9.15618C17.6795 9.84754 20.4234 8.98694 20.695 8.91514C21.4305 8.72078 22.0928 8.44737 22.7776 8.12453C22.923 8.05601 23.3037 7.84185 23.2404 7.98955C23.1507 8.1989 22.8302 8.51345 22.5203 8.78244M15.3138 7.79515C15.0516 7.85491 14.7923 7.93362 14.5365 8.04228M14.5365 8.04228C14.5325 8.04398 14.5285 8.04569 14.5245 8.0474M18.2182 11.2151C18.2532 11.1972 18.2882 11.1794 18.3232 11.1616C18.6843 10.9788 19.5919 10.3134 19.4416 10.6892C19.4129 10.7612 19.305 10.8701 19.1744 10.9849M18.2182 11.2151C18.0005 11.3774 17.796 11.5595 17.6097 11.769C17.2175 12.2104 18.5228 11.356 19.1744 10.9849M18.2182 11.2151C18.8961 10.7099 19.7016 10.3971 20.4797 10.0492M19.1744 10.9849C19.2302 10.9531 19.2812 10.9249 19.3259 10.9013C19.9239 10.5863 20.5182 10.2713 21.1063 9.94215M19.4261 16.5927C19.4012 16.6142 19.3764 16.6359 19.3517 16.6576M19.4261 16.5927C19.4993 16.5183 19.5719 16.4435 19.6441 16.3681C20.159 15.8301 21.7245 14.5773 20.2901 15.6064C19.4043 16.2418 18.5304 16.894 17.6483 17.5347C17.5141 17.6322 17.1053 17.9159 17.2434 17.8239C17.3109 17.7789 17.3766 17.7312 17.4458 17.6889C18.0549 17.3168 18.7052 16.9909 19.3517 16.6576M19.4261 16.5927C19.4084 16.6108 19.3906 16.6288 19.3728 16.6468M19.3517 16.6576C19.0993 16.8802 18.8595 17.1137 18.6399 17.3628M19.3517 16.6576C19.3588 16.654 19.3658 16.6504 19.3728 16.6468M18.6399 17.3628C18.536 17.4807 18.4366 17.6021 18.3425 17.7275C17.7648 18.4978 19.901 16.5934 20.6372 15.9728C20.653 15.9594 20.6768 15.9407 20.707 15.9177M18.6399 17.3628C18.8874 17.1277 19.1324 16.8898 19.3728 16.6468M18.6399 17.3628C17.5412 18.4062 16.3923 19.3939 15.3729 20.5236C14.2947 21.7183 16.485 20.0607 16.742 19.8679C19.7263 17.6297 16.6184 20.697 17.2434 20.8707C17.4284 20.9221 18.5469 20.0053 18.5643 19.9933C19.3851 19.425 20.2655 18.9 21.0325 18.2578C21.446 17.9116 21.844 17.5103 22.1606 17.0719C22.4417 16.6826 21.3165 17.6661 21.3121 17.6697C20.8994 18.0048 18.7269 19.2981 20.2322 18.1614C22.8973 16.149 25.4105 13.9907 27.9069 11.769C28.518 11.2252 29.1165 10.6603 29.7267 10.1114M20.707 15.9177C21.0924 15.6246 22.5176 14.6382 21.5821 15.3364C21.3023 15.5452 21.0089 15.7368 20.707 15.9177ZM20.707 15.9177C20.2746 16.1768 19.8247 16.4138 19.3728 16.6468M29.7267 10.1114C29.9663 9.89584 30.2076 9.68275 30.4523 9.47435C30.8124 9.16759 30.1386 9.84561 30.1052 9.86965C29.9832 9.9573 29.8566 10.0371 29.7267 10.1114ZM29.7267 10.1114C29.4769 10.2542 29.215 10.3765 28.9509 10.495M28.9509 10.495C28.7333 10.5926 28.5143 10.6876 28.2992 10.7892M28.9509 10.495C29.7552 9.92637 31.506 8.67879 30.0666 9.65754C29.5107 10.0356 28.9391 10.3894 28.3639 10.7375M28.9509 10.495C28.7954 10.605 28.6752 10.6896 28.6204 10.7278C27.3056 11.6432 26.1311 12.7222 24.8409 13.6684C24.7129 13.7623 24.1012 14.1188 23.5321 14.4302M28.2992 10.7892C28.2665 10.8047 28.2338 10.8203 28.2012 10.8362M28.2992 10.7892C28.3209 10.7721 28.3424 10.7548 28.3639 10.7375M28.2992 10.7892C28.1735 10.8888 28.0445 10.9854 27.9131 11.0796M28.2012 10.8362C28.2 10.8367 28.1989 10.8373 28.1977 10.8379M28.2012 10.8362C28.1072 10.9156 28.0096 10.9981 27.9131 11.0796M28.2012 10.8362L28.2029 10.8347M28.1977 10.8379C28.0929 10.8889 27.9894 10.9418 27.8876 10.9977C27.7207 11.0895 27.5555 11.1999 27.3945 11.3212M28.1977 10.8379C27.9301 10.9992 27.6619 11.1597 27.3945 11.3212M28.1977 10.8379C28.1994 10.8368 28.2012 10.8358 28.2029 10.8347M27.3945 11.3212C27.2016 11.4665 27.0146 11.6275 26.8372 11.7913M27.3945 11.3212C26.7454 11.713 26.1005 12.1106 25.4773 12.5404C24.8513 12.9719 24.3321 13.3822 23.7611 13.8902C23.4548 14.1626 22.5377 14.7689 22.7638 14.8307M26.8372 11.7913C26.7059 11.9127 26.5799 12.0355 26.4607 12.1547C25.2524 13.363 26.8351 11.9746 27.2513 11.6341C27.4076 11.5062 27.6567 11.2962 27.9131 11.0796M26.8372 11.7913C27.2028 11.5609 27.5663 11.3284 27.9131 11.0796M26.8372 11.7913C26.2003 12.1928 25.5572 12.588 24.9855 13.0514C24.7506 13.2418 24.0936 13.965 23.5321 14.4302M28.2029 10.8347C28.6714 10.4391 29.051 10.1211 28.7747 10.3807C28.6428 10.5045 28.5055 10.6231 28.3639 10.7375M28.2029 10.8347C28.2566 10.8024 28.3102 10.77 28.3639 10.7375M23.5321 14.4302C23.2565 14.6584 23.0039 14.8245 22.8355 14.835C22.8045 14.837 22.7809 14.8354 22.7638 14.8307M23.5321 14.4302C23.2415 14.5891 22.962 14.7363 22.7638 14.8307M22.7638 14.8307C22.5755 14.9204 22.4604 14.9625 22.4787 14.9218C23.1416 13.4489 24.6945 12.4049 25.6894 11.1713C26.0852 10.6805 27.2166 9.63532 27.3574 9.00191C27.4028 8.7972 24.9027 9.39619 24.6674 9.43578C23.6488 9.60717 22.6277 9.74597 21.6013 9.86001C21.471 9.87449 21.2989 9.90635 21.1063 9.94215M21.1063 9.94215C20.911 9.97847 20.6947 10.0188 20.4797 10.0492M21.1063 9.94215C21.3237 9.82054 21.5401 9.69698 21.7556 9.57076C22.0596 9.39274 22.5567 9.03648 23.0243 8.71113M20.4797 10.0492C20.0918 10.1041 19.7084 10.1263 19.4609 10.0336C19.2617 9.95884 19.8436 9.84695 20.0394 9.7636C20.7974 9.44088 21.5287 9.0158 22.3341 8.81872C22.3895 8.80518 22.4522 8.79342 22.5203 8.78244M20.4797 10.0492C20.9965 9.81818 21.5012 9.57165 21.9484 9.24295C22.0686 9.15465 22.2915 8.98095 22.5203 8.78244M22.5203 8.78244C22.6694 8.75838 22.8444 8.73809 23.0243 8.71113M23.0243 8.71113C23.4696 8.64443 23.9456 8.5369 24.1371 8.23059C24.4332 7.75686 23.766 8.19513 23.0243 8.71113ZM16.2603 13.0803C16.4543 13.0803 16.6474 13.0747 16.8399 13.0643M16.8399 13.0643C17.5245 13.0273 18.2007 12.9302 18.8747 12.8139M16.8399 13.0643C16.6377 13.5375 16.4448 14.0149 16.2552 14.4926M16.8399 13.0643C17.0913 12.4759 17.357 11.894 17.6487 11.3256C17.7125 11.2012 17.8058 11.0411 17.9175 10.8937M18.8747 12.8139C19.1819 12.7609 19.4887 12.704 19.7956 12.6469M18.8747 12.8139C18.8169 12.4731 18.7675 12.1313 18.7285 11.7884C18.7172 11.6886 18.7245 11.2325 18.658 10.891M18.8747 12.8139C18.8996 12.9609 18.926 13.1077 18.9538 13.2543M19.7956 12.6469C19.8917 12.629 19.9878 12.6111 20.0839 12.5933M19.7956 12.6469C19.7783 12.719 19.7611 12.7911 19.744 12.8634M19.7956 12.6469C19.9454 12.0254 20.1109 11.411 20.4044 10.84M20.0839 12.5933C20.1231 12.5861 20.1622 12.5789 20.2014 12.5717M20.0839 12.5933C20.2342 12.4517 20.4097 12.2945 20.5788 12.1615M20.0839 12.5933C20.005 12.6678 19.9331 12.7379 19.8727 12.798M20.2014 12.5717C20.2193 12.5684 20.2373 12.5651 20.2552 12.5618M20.2014 12.5717C20.3447 12.4399 20.4754 12.3196 20.5751 12.2286M20.2014 12.5717C20.1604 12.6093 20.1185 12.6479 20.0759 12.6871M20.2552 12.5618C20.3555 12.5435 20.4559 12.5253 20.5563 12.5074M20.2552 12.5618C20.2017 12.6044 20.1433 12.6458 20.0759 12.6871M20.2552 12.5618C20.3701 12.4704 20.4626 12.3733 20.5733 12.2593M20.5563 12.5074C20.8282 12.4591 21.1006 12.4132 21.3739 12.3724M20.5563 12.5074C20.5627 12.4249 20.5684 12.3422 20.5733 12.2593M20.5563 12.5074C20.5438 12.6688 20.5286 12.8296 20.5114 12.9902M21.3739 12.3724C21.5288 12.3493 21.6839 12.3278 21.8394 12.3085M21.3739 12.3724C21.3819 12.4251 21.3885 12.4794 21.3939 12.5352M21.3739 12.3724C21.3475 12.1977 21.3058 12.0415 21.245 11.9137C21.171 11.7584 20.8856 11.9202 20.5788 12.1615M21.8394 12.3085C22.0167 12.2864 22.1946 12.267 22.373 12.2512C23.2464 12.1735 22.2982 12.8107 22.0356 12.9839C21.8336 13.1172 21.6207 13.2334 21.4002 13.3369M21.8394 12.3085C21.6907 12.3837 21.5422 12.4593 21.3939 12.5352M21.8394 12.3085C22.3678 12.0409 22.8986 11.7771 23.4336 11.5184C23.944 11.2716 24.2517 11.1174 24.6857 10.8893M21.4002 13.3369C21.086 13.4845 20.7564 13.606 20.4213 13.7136M21.4002 13.3369C21.3927 13.4663 21.3819 13.5965 21.3689 13.7251M21.4002 13.3369C21.4164 13.0578 21.4176 12.7826 21.3939 12.5352M20.4213 13.7136C20.1004 13.8167 19.7745 13.9069 19.4521 13.995M20.4213 13.7136C20.4547 13.4729 20.4854 13.2319 20.5114 12.9902M20.4213 13.7136C20.4063 13.8217 20.3908 13.9297 20.3749 14.0376M19.4521 13.995C19.3426 14.0249 19.2335 14.0546 19.1252 14.0844M19.4521 13.995C19.4208 14.098 19.3877 14.2005 19.3521 14.3022M19.4521 13.995C19.5051 13.8204 19.5527 13.6443 19.5977 13.4674M19.1252 14.0844C19.062 14.1018 18.9991 14.1192 18.9365 14.1368M19.1252 14.0844C19.1081 14.0075 19.0913 13.9305 19.0749 13.8534M19.1252 14.0844C19.1441 14.1699 19.1634 14.2553 19.1831 14.3406M18.9365 14.1368C18.8863 14.1509 18.8362 14.1651 18.7864 14.1795C18.5412 14.25 18.3635 14.2969 18.2417 14.3238M18.9365 14.1368C18.9783 14.0404 19.0246 13.946 19.0749 13.8534M18.9365 14.1368C18.897 14.2281 18.8614 14.3211 18.8304 14.4159M18.2417 14.3238C17.7793 14.426 18.1216 14.2412 18.6282 13.9766M18.2417 14.3238C18.3699 14.2074 18.4987 14.0916 18.6282 13.9766M18.2417 14.3238C18.1506 14.4066 18.0599 14.4896 17.9694 14.573M18.6282 13.9766C18.7276 13.9246 18.8334 13.8696 18.9407 13.8131C18.9783 13.7932 19.016 13.7734 19.0537 13.7535M18.6282 13.9766C18.7605 13.8591 18.8935 13.7424 19.0273 13.6265M19.0537 13.7535C19.0912 13.7338 19.1287 13.714 19.1661 13.6943M19.0537 13.7535C19.0448 13.7112 19.036 13.6688 19.0273 13.6265M19.0537 13.7535C19.0607 13.7868 19.0678 13.8201 19.0749 13.8534M19.1661 13.6943C19.31 13.6186 19.4539 13.5429 19.5977 13.4674M19.1661 13.6943C19.2687 13.5247 19.3839 13.3617 19.5081 13.205M19.1661 13.6943C19.1345 13.7467 19.104 13.7998 19.0749 13.8534M19.5977 13.4674C19.9022 13.3076 20.2066 13.1484 20.5114 12.9902M19.5977 13.4674C19.635 13.3207 19.6704 13.1735 19.7054 13.0262M20.5114 12.9902C20.8052 12.8376 21.0992 12.6858 21.3939 12.5352M24.6857 10.8893C24.7591 10.8507 24.8362 10.81 24.9184 10.7664C25.1643 10.6359 25.8995 10.409 25.6319 10.3325C25.2015 10.2095 24.4586 10.5083 23.8136 10.8094M24.6857 10.8893C24.3901 10.8453 24.0745 10.8226 23.8136 10.8094M24.6857 10.8893C25.3836 10.9931 25.9696 11.2154 25.4583 11.7112C24.6525 12.4926 23.3951 12.9369 22.373 13.3503C22.0423 13.4841 21.7073 13.609 21.3689 13.7251M23.8136 10.8094C23.4202 10.9931 23.0632 11.1776 22.8358 11.2677C22.821 11.2736 20.9996 12.1825 21.7463 11.663L21.7563 11.6561C22.2453 11.3159 22.6541 11.0315 23.2215 10.8242C23.2554 10.8118 23.2859 10.8001 23.3131 10.7891M23.8136 10.8094C23.5919 10.7982 23.4097 10.7938 23.3131 10.7891M23.3131 10.7891C23.8866 10.557 23.0092 10.6236 22.2855 10.6997M23.3131 10.7891C23.2906 10.788 23.2727 10.7869 23.2601 10.7856C22.9352 10.7539 22.6103 10.7254 22.2855 10.6997M22.2855 10.6997C21.9062 10.7397 21.5692 10.7822 21.5053 10.7856C21.2022 10.8021 20.8965 10.8178 20.589 10.8318M22.2855 10.6997C21.015 10.5996 19.7445 10.5438 18.4733 10.5131M20.589 10.8318C20.5275 10.8346 20.466 10.8373 20.4044 10.84M20.589 10.8318C20.5705 10.6721 20.5335 10.6015 20.464 10.7278C20.4436 10.765 20.4237 10.8024 20.4044 10.84M20.589 10.8318C20.6209 11.1089 20.5969 11.654 20.5894 11.9041C20.5868 11.99 20.5832 12.0759 20.5788 12.1615M20.4044 10.84C19.8261 10.865 19.2422 10.8837 18.658 10.891M18.658 10.891C18.4111 10.8941 18.1641 10.8951 17.9175 10.8937M18.658 10.891C18.6224 10.7078 18.5656 10.5576 18.4733 10.5131M17.9175 10.8937C17.1023 10.889 16.291 10.8577 15.4986 10.7856C15.0493 10.7448 14.9183 10.632 14.9677 10.4879M17.9175 10.8937C18.0416 10.73 18.1884 10.5819 18.3429 10.5157C18.3475 10.5137 18.3521 10.5119 18.3566 10.5103M14.9677 10.4879C14.969 10.4841 14.9704 10.4802 14.972 10.4763M14.9677 10.4879C15.5508 10.488 16.1387 10.4869 16.6206 10.4836M14.9677 10.4879C13.3009 10.4876 11.6732 10.4771 12.6736 10.4771C13.4403 10.4771 14.2064 10.4754 14.972 10.4763M14.972 10.4763C15.1121 10.1298 16.2508 9.61299 16.5303 9.47439C16.7145 9.38303 16.902 9.30007 17.0913 9.22206M14.972 10.4763C15.5218 10.4769 16.0713 10.4788 16.6206 10.4836M17.0913 9.22206C17.1535 9.19646 17.2158 9.1714 17.2783 9.14675M17.0913 9.22206C17.1625 9.20332 17.2335 9.18369 17.3041 9.16312M17.0913 9.22206C15.7462 9.57602 14.3106 9.60937 12.9243 9.60937C11.6758 9.60937 12.2341 8.7662 12.9338 8.18808M17.2783 9.14675C17.7612 8.95624 18.2535 8.79019 18.7326 8.59215M17.2783 9.14675C16.3377 8.55548 15.2037 8.29075 14.1206 7.97183M17.2783 9.14675C17.2869 9.15218 17.2955 9.15764 17.3041 9.16312M18.7326 8.59215C18.9234 8.51326 19.1122 8.4293 19.2974 8.33669C19.8533 8.05873 19.1708 8.38293 18.7326 8.59215ZM18.7326 8.59215C18.565 8.67216 18.4332 8.73535 18.42 8.74163C18.0582 8.91392 17.6852 9.05219 17.3041 9.16312M17.3041 9.16312C17.436 9.24714 17.5639 9.33768 17.6873 9.43582C18.5881 10.1524 18.5 10.457 17.2437 10.4771C17.0708 10.4799 16.8587 10.482 16.6206 10.4836M12.9338 8.18808C13.0196 8.11726 13.1074 8.05042 13.1943 7.98959C13.5398 7.74772 11.7378 8.46245 12.3266 8.3174C12.4902 8.27709 12.6988 8.23358 12.9338 8.18808ZM12.9338 8.18808C13.2899 8.11916 13.7069 8.04567 14.1206 7.97183M14.1206 7.97183C15.435 7.73723 16.717 7.49899 15.9132 7.39182C14.9674 7.26571 13.9621 7.35325 13.0111 7.35325C12.8956 7.35325 12.6971 7.37138 12.4574 7.3932M14.1206 7.97183C13.7444 7.86105 13.3744 7.74374 13.0207 7.60393C12.8314 7.52907 12.6443 7.45823 12.4574 7.3932M12.4574 7.3932C11.7183 7.46049 10.5885 7.56282 10.3018 7.27612C10.0816 7.05593 10.7316 7.01325 10.7646 7.0158C11.3633 7.06184 11.9096 7.20259 12.4574 7.3932ZM16.6206 10.4836C17.1994 10.4887 17.7781 10.497 18.3566 10.5103M18.3566 10.5103C18.3955 10.5112 18.4344 10.5121 18.4733 10.5131M18.3566 10.5103C18.4007 10.4946 18.4394 10.4967 18.4733 10.5131M21.3689 13.7251C21.0407 13.8377 20.7091 13.9419 20.3749 14.0376M21.3689 13.7251C21.3198 14.211 21.2384 14.675 21.1775 14.9894C21.01 15.8535 20.7375 16.7969 20.4255 17.6215C20.1807 18.2683 20.1184 17.9593 20.0012 17.5154C19.9948 17.4911 19.9883 17.4667 19.9819 17.4423M20.3749 14.0376C20.0365 14.1345 19.6954 14.2228 19.3521 14.3022M20.3749 14.0376C20.2897 14.6173 20.1941 15.1963 20.1169 15.78C20.0434 16.3356 20.0101 16.8889 19.9819 17.4423M19.3521 14.3022C19.2958 14.3153 19.2395 14.3281 19.1831 14.3406M19.3521 14.3022C19.3179 14.4002 19.2815 14.4976 19.2423 14.5941M19.1831 14.3406C19.0657 14.3667 18.9482 14.3918 18.8304 14.4159M19.1831 14.3406C19.2025 14.4252 19.2223 14.5097 19.2423 14.5941M18.8304 14.4159C18.5446 14.4744 18.2575 14.5267 17.9694 14.573M18.8304 14.4159C18.7652 14.6154 18.7201 14.8225 18.6996 15.0376C18.6879 15.1611 18.6121 15.7397 18.8442 15.375C19.0045 15.1232 19.1338 14.8618 19.2423 14.5941M17.9694 14.573C17.3625 14.6705 16.7516 14.741 16.14 14.7838M17.9694 14.573C17.14 15.3377 16.3358 16.1287 15.5372 16.9273C15.2188 17.2457 14.3719 18.2594 14.5441 17.8433C14.9361 16.8958 15.6235 16.0958 16.0096 15.1147C16.053 15.0044 16.0965 14.8941 16.14 14.7838M16.14 14.7838C15.9487 14.7971 15.7574 14.8078 15.5661 14.8158C15.2994 14.8269 15.8879 14.6322 16.2552 14.4926M16.14 14.7838C16.1783 14.6867 16.2167 14.5897 16.2552 14.4926M16.2552 14.4926C16.3253 14.466 16.3874 14.4413 16.4339 14.4205C17.2756 14.0436 18.1207 13.6582 18.9538 13.2543M18.9538 13.2543C19.2186 13.126 19.4821 12.9958 19.744 12.8634M18.9538 13.2543C18.9774 13.3785 19.0019 13.5026 19.0273 13.6265M19.744 12.8634C19.7869 12.8416 19.8299 12.8199 19.8727 12.798M19.744 12.8634C19.7371 12.8925 19.7302 12.9216 19.7233 12.9507M19.8727 12.798C19.8899 12.7893 19.907 12.7805 19.9241 12.7718C19.9797 12.7434 20.0299 12.7152 20.0759 12.6871M19.8727 12.798C19.8073 12.8632 19.7555 12.9165 19.7233 12.9507M20.0759 12.6871C19.9539 12.7991 19.827 12.9155 19.7054 13.0262M20.5733 12.2593C20.6057 12.226 20.6396 12.1912 20.6761 12.1547C20.8441 11.9868 20.7668 12.0536 20.5751 12.2286M20.5733 12.2593C20.5739 12.2491 20.5745 12.2389 20.5751 12.2286M20.5751 12.2286C20.5764 12.2063 20.5776 12.1839 20.5788 12.1615M19.7054 13.0262C19.6374 13.0881 19.5711 13.1483 19.5081 13.205M19.7054 13.0262C19.7113 13.0011 19.7173 12.9759 19.7233 12.9507M19.5081 13.205C19.3852 13.3158 19.2752 13.4134 19.1913 13.4853C19.1365 13.5322 19.0819 13.5793 19.0273 13.6265M19.5081 13.205C19.5677 13.1298 19.6294 13.0562 19.6927 12.9839C19.6988 12.9769 19.7092 12.9656 19.7233 12.9507M19.2423 14.5941C19.4694 15.5506 19.7325 16.4996 19.9819 17.4423M19.9819 17.4423C19.957 17.932 19.9361 18.4219 19.8952 18.9135C19.8596 19.3403 19.6579 18.941 19.5577 18.8074M17.4751 18.4603V21.3142C17.4751 21.8147 17.1443 22.7437 17.128 21.6806C17.1163 20.9206 17.0731 20.4972 16.7905 19.7908C16.5325 19.1459 16.0916 20.1015 15.9131 20.3693M17.4747 15.8571C18.1238 16.1724 18.8825 16.3456 19.4994 16.667C20.2058 17.0349 21.0046 17.1747 21.6977 17.554C22.257 17.86 22.6468 18.3662 23.1632 18.7303C23.7332 19.132 24.386 19.3792 24.9662 19.7619C25.9315 20.3986 26.8933 21.0197 27.8683 21.6494L27.9165 21.6806C28.275 21.9121 32.1684 23.3001 32.1684 23.4546C32.1684 23.6954 27.261 21.6928 26.7113 21.4492C26.2559 21.2473 25.738 21.2208 25.3037 21.0346C25.113 20.9529 25.0536 20.681 24.918 20.5429C24.5038 20.1207 23.9059 19.8605 23.385 19.6076C22.268 19.0656 21.1187 19.0867 20.0201 18.5664C19.5362 18.3371 18.7582 18.0712 19.7308 18.4603M20.078 18.4604C20.7823 18.9886 21.8081 18.9766 22.6799 19.2677M22.6799 19.2677C22.8585 19.3273 23.0307 19.3997 23.1923 19.492C23.2679 19.5352 23.344 19.5777 23.4206 19.6196M22.6799 19.2677C22.6753 19.3473 22.6786 19.4499 22.6909 19.5788C22.7275 19.9632 22.9541 20.8684 23.2019 21.16C23.8147 21.881 24.7905 21.9076 25.6509 22.2784C25.7952 22.3406 25.9403 22.4006 26.0861 22.4589M22.6799 19.2677C22.7084 18.7678 23.0465 19.1694 23.4206 19.6196M23.4206 19.6196C24.2835 20.0918 25.2008 20.4868 26.0654 20.9672C27.1357 21.5618 28.2167 22.0477 29.2568 22.6255C29.4347 22.7243 29.6083 22.8273 29.781 22.9307M23.4206 19.6196C23.6472 19.8923 23.887 20.1829 24.0793 20.3019C25.398 21.1183 26.8342 21.7269 28.0805 22.6641C28.7484 23.1663 29.3063 23.6602 30.0258 24.0457M29.781 22.9307C30.1276 23.1383 30.4708 23.3482 30.838 23.5318C31.1192 23.6724 32.8555 24.6692 31.5129 24.496C31.4417 24.4868 31.371 24.4755 31.3009 24.4624M29.781 22.9307C30.1808 23.3034 30.5711 23.6843 30.9537 24.091C31.0419 24.1848 31.1644 24.3171 31.3009 24.4624M29.781 22.9307C29.4522 22.6242 29.1171 22.3233 28.7747 22.0181C28.6146 21.8754 28.4594 21.7269 28.3054 21.578M31.3009 24.4624C30.8588 24.3799 30.4383 24.2239 30.0258 24.0457M31.3009 24.4624C31.3666 24.5325 31.4356 24.6056 31.5056 24.6788M30.0258 24.0457C29.6796 23.8961 29.3392 23.7308 28.9965 23.58C28.6293 23.4185 28.2566 23.2724 27.882 23.1319M30.0258 24.0457C30.1109 24.0913 30.1983 24.1354 30.2884 24.1778C30.5214 24.2874 31.0427 24.4649 31.5056 24.6788M27.882 23.1319C27.2833 22.9073 26.6798 22.6966 26.0861 22.4589M27.882 23.1319C27.9436 23.189 28.0035 23.2514 28.0612 23.3197C28.504 23.843 29.3574 24.9985 30.0474 25.1902C30.5281 25.3237 31.3297 25.3392 32.0484 25.2196M27.882 23.1319C27.3731 22.6603 26.7398 22.5497 26.0861 22.4589M26.0861 22.4589C25.6901 22.4039 25.2866 22.3562 24.8988 22.2399C24.2728 22.052 23.5703 21.4637 22.9512 21.4107C22.5521 21.3765 21.8758 21.2371 22.6813 21.2371M31.5056 24.6788C31.8331 24.8301 32.1313 24.9996 32.2775 25.1762M31.5056 24.6788C31.6943 24.8763 31.8901 25.0752 32.0484 25.2196M32.2775 25.1762C32.3104 25.2159 32.3356 25.2559 32.3517 25.2962C32.4473 25.5351 32.2921 25.4418 32.0484 25.2196M32.2775 25.1762C32.7558 25.0738 33.1745 24.9068 33.4027 24.6695C33.5586 24.5073 33.4897 24.2785 33.2779 24.0154M32.2775 25.1762C32.2025 25.1922 32.1259 25.2067 32.0484 25.2196M28.3054 21.578C27.6178 20.9132 26.9539 20.239 25.9787 20.0223C25.334 19.879 24.9688 19.3067 24.6123 18.7118M28.3054 21.578C27.1812 21.0626 26.0463 20.2738 25.323 19.6752C24.5617 19.0451 22.6176 16.8716 23.4815 17.3516C23.9647 17.6201 24.2727 18.1439 24.5811 18.6597M28.3054 21.578C28.5847 21.7061 28.8633 21.8172 29.1348 21.9044M24.6123 18.7118C24.6019 18.6944 24.5915 18.6771 24.5811 18.6597M24.6123 18.7118C24.0269 18.3706 23.8112 18.2375 24.3685 18.5471C24.44 18.5869 24.5109 18.6241 24.5811 18.6597M24.6123 18.7118C24.98 18.9261 25.4936 19.2226 26.0531 19.5429M24.5811 18.6597C25.0444 18.8947 25.4811 19.0606 25.9112 19.4245C25.9582 19.4643 26.0055 19.5037 26.0531 19.5429M29.1348 21.9044C29.4736 22.0132 29.8013 22.0846 30.1053 22.1049C30.469 22.1291 30.9133 22.3124 31.3257 22.5112M29.1348 21.9044C30.3386 22.8702 31.7618 23.9365 33.2484 24.0139C33.2584 24.0144 33.2682 24.0149 33.2779 24.0154M29.1348 21.9044C28.9277 21.7382 28.727 21.575 28.5337 21.4203C27.7286 20.7763 26.8485 20.1973 26.0531 19.5429M31.3257 22.5112C31.5913 22.6392 31.8438 22.7737 32.0528 22.8762C32.7055 23.1961 35.2183 24.1086 33.2779 24.0154M31.3257 22.5112C30.2797 21.8622 29.226 21.322 29.1218 21.2661C28.4282 20.8939 27.1523 20.1723 26.0531 19.5429M31.3257 22.5112C32.1212 23.0048 32.9124 23.5613 33.2779 24.0154" stroke="#0C0FE9" stroke-width="1.56413" stroke-linecap="round"/>
<path d="M28.7245 13.7832C29.3481 13.4625 30.9223 12.8643 30.9223 12.0127C30.9223 10.9889 31.0183 9.96534 31.4379 9.02127C31.6159 8.62082 31.0329 8.68417 30.7188 8.65496C29.7108 8.5612 28.7531 8.28866 27.7342 8.28866C27.1198 8.28866 26.7135 8.0508 26.1333 7.94949C25.3625 7.8149 24.4868 7.79824 23.7591 7.50179C21.8701 6.73221 19.9115 6.13133 17.9932 5.42608C15.6663 4.57057 13.6632 3.39454 11.142 3.0926C10.0537 2.96226 9.19754 2.4595 8.15734 2.25146C7.37102 2.09419 6.51903 2.0874 5.76281 1.81732C4.44944 1.34826 2.92633 1.52077 1.61816 1.08472" stroke="black" stroke-width="2" stroke-linecap="round"/>
<path d="M2.59473 1.81714C2.63177 2.44686 3.02106 2.88022 3.08991 3.4655C3.13554 3.85332 3.40719 4.20225 3.59867 4.53049C3.90363 5.05329 4.07212 5.61985 4.31092 6.17207C4.70195 7.07633 4.77025 7.96549 5.00961 8.89898C5.26132 9.88068 5.88486 10.6801 6.25775 11.6123C6.59086 12.4451 7.01401 13.2977 7.46519 14.0747C7.76058 14.5834 7.77191 15.1804 8.04856 15.6959C8.38453 16.3221 8.74793 16.9183 9.06607 17.5546C9.73564 18.8937 11.2715 19.7032 12.0643 21.0005C12.3683 21.4979 12.4935 21.8618 12.8919 22.3029C13.3137 22.77 13.6196 23.4121 14.0111 23.9174C14.3968 24.415 14.7894 24.8495 15.049 25.4233C15.3659 26.1239 15.9569 26.6568 16.5074 27.2073C16.8048 27.5047 17.5198 28.6305 17.9116 28.4215C18.4863 28.1151 18.8076 27.1255 19.0648 26.6036C19.3467 26.0313 19.7162 25.2665 20.1501 24.7992C20.717 24.1888 21.715 22.9282 21.7645 22.0859C21.7785 21.8494 23.4028 22.8308 23.63 22.8795C24.5484 23.0763 25.4875 23.1889 26.4112 23.3611C26.9827 23.4677 27.1489 23.6641 27.6118 23.9445C28.4745 24.467 29.4961 24.5785 30.3794 25.0434C31.0183 25.3796 31.748 25.7677 32.3602 26.1695C33.1063 26.6591 33.1647 26.6328 33.7304 25.9863C34.3478 25.2808 34.6691 23.9965 34.2053 23.1848C33.9656 22.7655 32.521 22.6851 32.0753 22.5471C31.4223 22.345 30.792 22.0294 30.1895 21.7196C28.94 21.077 27.8992 19.9195 26.5943 19.3454C26.0176 19.0917 25.688 18.5901 25.1562 18.2736C24.7147 18.0108 23.8634 17.7452 24.6271 17.2018C25.386 16.6619 26.3568 16.0495 26.8928 15.2754C27.1978 14.8347 27.8279 14.5185 27.9917 14.0272" stroke="black" stroke-width="2" stroke-linecap="round"/>
</svg>
