<svg width="46" height="30" viewBox="0 0 46 30" fill="none" xmlns="http://www.w3.org/2000/svg">
<path d="M5.16916 16.384C4.36516 15.4907 4.42562 13.7026 3.95642 12.5687C3.38349 11.1841 3.5887 9.00375 3.75203 7.55419C3.88606 6.36469 4.20958 5.77457 4.92389 4.85618C6.09707 3.34781 8.69772 3.90089 10.4016 3.38455C12.7969 2.65872 14.8659 3.85689 15.6069 6.21881C15.8425 6.96981 15.1135 9.04841 15.7431 8.57616C16.4529 8.04383 16.7 6.35207 17.4601 5.592C19.1941 3.858 21.2826 3.68718 23.5646 3.19378C25.8268 2.70467 25.887 3.55302 26.3853 5.34673C26.7789 6.76382 26.7661 9.29913 25.7176 10.443C24.6145 11.6463 25.7754 10.2488 26.249 9.77527C26.8816 9.14263 27.474 8.09313 28.2793 7.69045C29.7914 6.9344 32.3992 6.49527 34.1114 6.57309C34.7712 6.60309 35.2824 6.93911 35.7465 7.39067C37.4755 9.07297 39.2297 10.2408 41.3333 11.424C43.1691 12.4567 43.0913 14.7537 41.7148 16.275C40.1816 17.9696 38.5607 19.9177 36.4415 20.9216C34.3207 21.9261 32.8144 23.9633 30.514 24.8323C29.2734 25.301 28.2948 26.082 27.0938 26.5765C25.42 27.2657 23.4063 26.8495 21.6433 27.176C19.2447 27.6202 16.6792 27.4871 14.2443 27.4213C12.6688 27.3787 11.1064 26.2644 9.69308 25.6499C5.2844 23.7331 6.15025 19.0439 6.15025 14.9124" stroke="#0C0FE9" stroke-width="2" stroke-linecap="round"/>
<path d="M14.7353 18.346C15.2005 17.8636 18.2588 13.7562 16.2614 15.2119C15.6636 15.6476 13.3762 17.5745 14.054 18.5912C14.3697 19.0649 15.7608 18.8511 16.2069 18.782C17.4426 18.5906 18.2195 17.5735 18.8504 16.5745C19.0165 16.3115 20.2588 14.3168 19.777 13.9855C19.443 13.7559 18.4112 14.5324 18.1691 14.6669" stroke="#0C0FE9" stroke-width="3" stroke-linecap="round"/>
<path d="M10.8108 19.0819C10.2256 19.8866 10.3293 21.4073 11.4649 21.4801C13.4028 21.6043 17.6977 18.6438 17.1743 16.2885C17.0634 15.7897 14.947 15.8656 14.5444 15.8933C14.2708 15.9122 13.5488 16.5516 13.4543 16.5201C12.881 16.329 12.8555 13.6422 12.7594 13.1136C12.6818 12.6869 11.5139 10.282 10.8653 10.6063C9.02221 11.5279 8.5025 12.4841 8.09919 14.299C7.73146 15.9538 7.32733 14.2018 6.80469 13.2498C6.17938 12.1109 6.06976 10.7624 5.89173 9.51623C5.74282 8.47386 4.97987 8.26151 6.05525 7.18614C7.03957 6.20181 7.79861 6.08241 9.0939 6.08241C9.77082 6.08241 10.5288 5.97539 11.1923 6.09603C12.3995 6.31552 12.5576 7.99607 13.2635 8.78041C13.7954 9.37132 14.5952 10.0168 14.7216 10.838C14.9582 12.3763 16.897 10.983 17.5422 10.1975C18.3537 9.20967 19.2359 8.27056 20.1176 7.30877C21.2547 6.06821 22.1294 5.90659 23.8648 5.53736C24.9363 5.30938 24.9869 6.01899 25.0366 7.0635C25.0785 7.94203 25.401 10.0431 24.5461 10.5927C22.9999 11.5867 20.1727 14.9635 23.347 15.7571C27.19 16.7178 28.9938 14.2569 31.0595 11.601C32.0001 10.3917 34.6722 7.65133 36.3056 9.42084C36.9656 10.1359 37.8711 12.9415 37.7908 13.9311C37.631 15.902 33.3089 17.4893 31.768 17.8828C29.0797 18.5691 26.5303 20.0513 23.783 20.5535C22.5388 20.781 19.6812 21.6643 20.2266 19.5997C20.7612 17.5757 22.6382 15.9137 24.0419 14.4489C25.2556 13.1825 26.4485 11.515 27.9254 10.5518C28.8936 9.92041 29.9686 9.51623 31.1276 9.51623C31.4682 9.51623 31.8089 9.51623 32.1496 9.51623C33.057 9.51623 30.84 10.4225 30.6779 10.4973" stroke="#0C0FE9" stroke-width="5" stroke-linecap="round"/>
<path d="M34.6022 15.1575C34.6022 17.0872 31.5135 19.1585 29.8058 19.5725C29.3296 19.6879 28.9037 19.8517 28.4431 20.0085C27.7693 20.2379 28.998 18.4288 29.0155 18.4006C30.1215 16.6139 31.781 15.2766 32.8581 13.4815C33.1761 12.9515 33.5771 12.5959 33.9482 12.1189C34.7022 11.1495 31.6504 12.9944 30.5416 13.5224C27.6151 14.916 23.8752 16.2201 20.6762 16.82C18.9735 17.1392 18.9759 15.6534 18.9184 14.2446C18.8758 13.2022 18.4031 10.781 19.3135 9.87055C19.6278 9.55633 20.5289 8.60523 20.3219 8.99847C19.4132 10.725 17.7189 11.7601 16.1114 12.7866C14.1839 14.0174 12.1536 15.111 10.1839 16.2749C9.85745 16.4678 8.96635 17.117 8.49429 16.8472C8.01462 16.5731 8.35803 13.8942 8.35803 13.3589C8.35803 12.3551 8.35803 11.3513 8.35803 10.3475C8.35803 10.1669 8.49222 8.13053 8.11275 8.88946C6.78644 11.5421 7.94227 15.0133 9.09384 17.4604C10.5658 20.5882 12.8638 23.8116 16.3703 24.7777C18.4551 25.3521 20.5916 25.2137 22.7337 25.2137C23.6799 25.2137 24.8578 25.4222 25.7179 24.914C26.5507 24.4218 27.9603 23.4269 28.4159 22.5157C28.5888 22.1699 28.4069 22.0008 28.0616 22.1342C26.0325 22.9182 24.1169 23.8174 22.0252 24.4779C19.4199 25.3006 16.7455 27.4694 14.4762 25.2001C12.8316 23.5555 11.6295 20.0516 9.28461 19.3817C8.85498 19.2589 7.33036 19.0626 7.74484 19.4771C8.18763 19.9199 8.5859 20.2636 8.98483 20.6626C9.44299 21.1207 9.6909 21.5803 10.2521 21.9434C12.1774 23.1892 15.2693 23.4998 17.5421 23.2243C19.6959 22.9632 21.8599 21.7073 23.9192 21.0441C26.0727 20.3506 28.5688 19.7248 30.4326 18.4006C31.4699 17.6635 32.4115 17.6511 33.5257 17.2151C34.4294 16.8615 35.3632 16.1483 36.1556 15.5936C36.6536 15.245 37.4719 14.9586 37.8862 14.5444C38.9444 13.4861 38.7131 15.2596 38.2813 15.9751C37.864 16.6667 36.9473 17.0544 36.2919 17.5013C35.5748 17.9902 35.0315 18.6851 34.3024 19.1364C32.5615 20.2142 30.5546 20.8459 28.7157 21.7254C27.9592 22.0872 27.1216 22.5157 26.2629 22.5157" stroke="#0C0FE9" stroke-width="5" stroke-linecap="round"/>
<path d="M39.0166 13.6858C39.5328 13.6858 39.8234 13.7213 40.243 13.9311" stroke="#0C0FE9" stroke-width="5" stroke-linecap="round"/>
<path d="M2.22636 11.2332C2.22636 15.1284 2.397 19.9019 5.41491 22.761C5.98881 23.3047 7.04397 24.1869 7.86764 24.2327C9.12309 24.3024 9.95049 25.7423 11.1652 25.9632C12.1723 26.1463 13.4179 26.9905 13.8087 27.9117C14.1537 28.7251 16.4368 28.4023 17.188 28.4023C19.9928 28.4023 23.2419 28.9389 25.7181 27.4757C27.4018 26.4808 28.6798 25.505 30.7189 25.2137C32.0011 25.0306 34.3316 25.0516 35.4472 24.3417C36.0839 23.9365 36.6377 23.0699 37.1641 22.5157C38.8701 20.72 40.3348 19.2749 42.5874 18.0736C44.7298 16.9309 44.539 13.2089 43.5412 11.3558C42.7712 9.92572 40.898 9.48581 40.1346 8.16728C39.5621 7.17841 38.0054 6.35917 37.0551 5.64642C34.1841 3.4932 30.5993 5.71741 27.6121 6.06884C26.8305 6.16079 26.4607 5.93189 25.8952 6.58663C25.4709 7.07793 25.07 7.89434 25.7726 6.94092C26.5071 5.94403 26.2318 5.58688 25.7181 4.61083C24.1697 1.6689 20.0129 2.35972 17.188 2.83941C15.4618 3.13254 14.2447 3.8582 14.2447 5.78268C14.2447 7.35309 14.2447 5.07877 14.2447 4.62445C14.2447 3.67029 13.6368 3.55008 12.8004 3.37083C12.2198 3.24642 12.0135 2.84124 11.5467 2.59414C10.1976 1.87992 9.50087 1.30956 7.86764 1.05437C5.91052 0.748568 4.83317 1.76704 3.58899 3.2482C2.79659 4.19154 1.53646 5.58732 1.49055 6.87279C1.41789 8.90709 1 10.8785 1 12.9501" stroke="black" stroke-width="2" stroke-linecap="round"/>
<path d="M13.999 5.34668C14.4911 5.40819 14.2443 9.5725 14.2443 10.2521" stroke="black" stroke-width="2" stroke-linecap="round"/>
<path d="M26.0175 6.81836C24.836 7.21222 24.5459 11.0097 24.5459 11.9691" stroke="black" stroke-width="2" stroke-linecap="round"/>
<path d="M1 11.4785C1.82695 12.3055 1.49055 13.8053 1.49055 14.9123C1.49055 15.7678 1.49055 13.7573 1.49055 13.5225C1.49055 12.0002 1 12.5672 1 13.686C1 14.9532 1 16.2205 1 17.4877C1 18.3744 3.78278 19.195 4.43382 20.0631" stroke="black" stroke-width="2" stroke-linecap="round"/>
</svg>
