<svg width="646" height="93" viewBox="0 0 646 93" fill="none" xmlns="http://www.w3.org/2000/svg">
<path d="M49.3 22L49.3 61.8H56V85.4H45.4V72H11.1V85.4H0.5L0.5 61.8H6.6C9.66667 57.5333 11.2 51.5 11.2 43.7L11.2 22H49.3ZM18.5 61.8H38.7L38.7 31.9H21.8V43.7C21.8 50.9 20.7 56.9333 18.5 61.8ZM102.42 29.1V22H113.22V72H102.42V64.8C98.3529 70.4667 92.5195 73.3 84.9195 73.3C78.0529 73.3 72.1862 70.7667 67.3195 65.7C62.4529 60.6333 60.0195 54.4 60.0195 47C60.0195 39.6 62.4529 33.3667 67.3195 28.3C72.1862 23.2333 78.0529 20.7 84.9195 20.7C92.5195 20.7 98.3529 23.5 102.42 29.1ZM75.3195 58.5C78.3195 61.5 82.0862 63 86.6195 63C91.1529 63 94.9195 61.5 97.9195 58.5C100.92 55.4333 102.42 51.6 102.42 47C102.42 42.4 100.92 38.6 97.9195 35.6C94.9195 32.5333 91.1529 31 86.6195 31C82.0862 31 78.3195 32.5333 75.3195 35.6C72.3195 38.6 70.8195 42.4 70.8195 47C70.8195 51.5333 72.3195 55.3667 75.3195 58.5ZM174.008 73.3C166.408 73.3 160.141 70.8333 155.208 65.9C150.408 60.9 148.008 54.5333 148.008 46.8C148.008 38.4 149.274 31.8667 151.808 27.2C154.274 22.6 159.408 18.3667 167.208 14.5C167.474 14.3667 167.908 14.1667 168.508 13.9C169.174 13.5667 169.874 13.2333 170.608 12.9C171.341 12.5667 172.074 12.2333 172.808 11.9C175.608 10.6333 177.341 9.83333 178.008 9.5C178.408 9.3 179.574 8.56666 181.508 7.3C183.841 5.63333 185.408 3.26666 186.208 0.199995L195.008 5.29999C194.674 8.96666 192.374 12.3333 188.108 15.4C187.374 16.0667 186.008 16.8667 184.008 17.8L179.708 19.8L174.708 21.9C170.374 23.6333 167.174 25.4 165.108 27.2C163.041 29 161.608 31.3 160.808 34.1C164.808 29.5667 170.241 27.3 177.108 27.3C182.974 27.3 188.074 29.4 192.408 33.6C196.808 37.8 199.008 43.2333 199.008 49.9C199.008 56.7 196.674 62.3 192.008 66.7C187.408 71.1 181.408 73.3 174.008 73.3ZM173.908 63.2C178.108 63.2 181.541 61.9667 184.208 59.5C186.874 56.9667 188.208 53.7667 188.208 49.9C188.208 45.9667 186.874 42.7333 184.208 40.2C181.608 37.6667 178.208 36.4 174.008 36.4C170.274 36.4 166.908 37.6 163.908 40C160.908 42.2667 159.408 45.4 159.408 49.4C159.408 53.4 160.808 56.7 163.608 59.3C166.408 61.9 169.841 63.2 173.908 63.2ZM226.493 58.4L239.293 22H250.793L231.593 73.6C229.26 79.9333 225.993 84.6667 221.793 87.8C217.593 90.9333 212.726 92.3333 207.193 92V81.9C213.593 82.3 218.026 79.1 220.493 72.3L220.793 71.6L199.793 22H211.293L226.493 58.4ZM298.519 22V61.8H305.219V85.4H294.619V72H260.319V85.4H249.719V61.8H255.819C258.885 57.5333 260.419 51.5 260.419 43.7V22H298.519ZM267.719 61.8H287.919V31.9H271.019V43.7C271.019 50.9 269.919 56.9333 267.719 61.8ZM360.338 51.6H320.538C321.338 55.3333 323.138 58.2333 325.938 60.3C328.805 62.3667 332.338 63.4 336.538 63.4C342.205 63.4 346.505 61.3333 349.438 57.2L358.338 62.4C353.472 69.6667 346.172 73.3 336.438 73.3C328.372 73.3 321.805 70.8333 316.738 65.9C311.738 60.9 309.238 54.6 309.238 47C309.238 39.6 311.705 33.3667 316.638 28.3C321.505 23.2333 327.838 20.7 335.638 20.7C342.905 20.7 348.905 23.2667 353.638 28.4C358.372 33.5333 360.738 39.7667 360.738 47.1C360.738 48.4333 360.605 49.9333 360.338 51.6ZM320.438 42.8H349.838C349.105 38.8667 347.438 35.8333 344.838 33.7C342.305 31.5667 339.205 30.5 335.538 30.5C331.538 30.5 328.205 31.6 325.538 33.8C322.872 36 321.172 39 320.438 42.8ZM362.988 22H406.488V32.4H390.188V72L379.388 72V32.4H362.988V22ZM497.996 61.8V22H508.796V72H438.796V22L449.596 22V61.8H468.396V22H479.196V61.8H497.996ZM563.616 65.7C558.549 70.7667 552.316 73.3 544.916 73.3C537.516 73.3 531.282 70.7667 526.216 65.7C521.082 60.5667 518.516 54.3333 518.516 47C518.516 39.6667 521.082 33.4333 526.216 28.3C531.282 23.2333 537.516 20.7 544.916 20.7C552.316 20.7 558.549 23.2333 563.616 28.3C568.749 33.4333 571.316 39.6667 571.316 47C571.316 54.3333 568.749 60.5667 563.616 65.7ZM529.316 47C529.316 51.5333 530.816 55.3 533.816 58.3C536.816 61.3 540.516 62.8 544.916 62.8C549.316 62.8 553.016 61.3 556.016 58.3C559.016 55.3 560.516 51.5333 560.516 47C560.516 42.4667 559.016 38.7 556.016 35.7C553.016 32.7 549.316 31.2 544.916 31.2C540.516 31.2 536.816 32.7 533.816 35.7C530.816 38.7 529.316 42.4667 529.316 47ZM600.028 58.4L612.828 22H624.328L605.128 73.6C602.795 79.9333 599.528 84.6667 595.328 87.8C591.128 90.9333 586.261 92.3333 580.728 92V81.9C587.128 82.3 591.561 79.1 594.028 72.3L594.328 71.6L573.328 22L584.828 22L600.028 58.4ZM641.781 50L633.281 50L631.081 22V2H644.081V22L641.781 50ZM637.581 58.2C639.648 58.2 641.415 58.9333 642.881 60.4C644.348 61.8667 645.081 63.6333 645.081 65.7C645.081 67.7667 644.348 69.5333 642.881 71C641.415 72.4667 639.648 73.2 637.581 73.2C635.515 73.2 633.748 72.4667 632.281 71C630.815 69.5333 630.081 67.7667 630.081 65.7C630.081 63.6333 630.781 61.8667 632.181 60.4C633.648 58.9333 635.448 58.2 637.581 58.2Z" fill="#0C0FE9"/>
</svg>
