<svg width="532" height="84" viewBox="0 0 532 84" fill="none" xmlns="http://www.w3.org/2000/svg">
<path d="M23.641 1.5V20.206H26.79V31.298H21.808V25H5.687V31.298H0.705V20.206H3.572C5.01333 18.2007 5.734 15.365 5.734 11.699V1.5H23.641ZM9.165 20.206H18.659V6.153H10.716V11.699C10.716 15.083 10.199 17.9187 9.165 20.206ZM48.6072 4.837V1.5H53.6832V25H48.6072V21.616C46.6958 24.2793 43.9542 25.611 40.3822 25.611C37.1548 25.611 34.3975 24.4203 32.1102 22.039C29.8228 19.6577 28.6792 16.728 28.6792 13.25C28.6792 9.772 29.8228 6.84233 32.1102 4.461C34.3975 2.07967 37.1548 0.888999 40.3822 0.888999C43.9542 0.888999 46.6958 2.205 48.6072 4.837ZM35.8702 18.655C37.2802 20.065 39.0505 20.77 41.1812 20.77C43.3118 20.77 45.0822 20.065 46.4922 18.655C47.9022 17.2137 48.6072 15.412 48.6072 13.25C48.6072 11.088 47.9022 9.302 46.4922 7.892C45.0822 6.45067 43.3118 5.73 41.1812 5.73C39.0505 5.73 37.2802 6.45067 35.8702 7.892C34.4602 9.302 33.7552 11.088 33.7552 13.25C33.7552 15.3807 34.4602 17.1823 35.8702 18.655ZM87.6117 12.921C89.9303 14.0177 91.0897 15.8193 91.0897 18.326C91.0897 20.3313 90.4003 21.945 89.0217 23.167C87.6743 24.389 85.7943 25 83.3817 25H71.3497V1.5H82.4417C84.823 1.5 86.6873 2.09533 88.0347 3.286C89.382 4.47667 90.0557 6.04333 90.0557 7.986C90.0557 10.2107 89.241 11.8557 87.6117 12.921ZM82.0657 5.824H76.1907V11.041H82.0657C84.1337 11.041 85.1677 10.1637 85.1677 8.409C85.1677 6.68567 84.1337 5.824 82.0657 5.824ZM76.1907 20.582H82.9117C85.0423 20.582 86.1077 19.6577 86.1077 17.809C86.1077 16.9943 85.8257 16.3677 85.2617 15.929C84.6977 15.459 83.9143 15.224 82.9117 15.224H76.1907V20.582ZM100.293 9.49H105.463C108.001 9.49 110.053 10.2107 111.62 11.652C113.218 13.062 114.017 14.9263 114.017 17.245C114.017 19.5323 113.218 21.3967 111.62 22.838C110.053 24.2793 108.001 25 105.463 25H95.2169V1.5H100.293V9.49ZM116.837 25V1.5H121.913V25H116.837ZM100.293 20.441H105.51C106.513 20.441 107.343 20.1433 108.001 19.548C108.69 18.9527 109.035 18.185 109.035 17.245C109.035 16.305 108.706 15.5373 108.048 14.942C107.39 14.3467 106.544 14.049 105.51 14.049H100.293V20.441ZM139.555 1.5H160.47V25H155.394V6.294H144.631V25H139.555V1.5ZM179.66 0.888999C182.856 0.888999 185.614 2.09533 187.932 4.508C190.22 6.88933 191.363 9.80333 191.363 13.25C191.363 16.728 190.22 19.6577 187.932 22.039C185.645 24.4203 182.888 25.611 179.66 25.611C176.12 25.611 173.378 24.295 171.435 21.663V34.4H166.359V1.5H171.435V4.884C173.347 2.22067 176.088 0.888999 179.66 0.888999ZM173.55 18.655C174.96 20.065 176.731 20.77 178.861 20.77C180.992 20.77 182.762 20.065 184.172 18.655C185.582 17.2137 186.287 15.412 186.287 13.25C186.287 11.088 185.582 9.302 184.172 7.892C182.762 6.45067 180.992 5.73 178.861 5.73C176.731 5.73 174.96 6.45067 173.55 7.892C172.14 9.302 171.435 11.088 171.435 13.25C171.435 15.3807 172.14 17.1823 173.55 18.655ZM215.845 22.039C213.464 24.4203 210.534 25.611 207.056 25.611C203.578 25.611 200.648 24.4203 198.267 22.039C195.854 19.6263 194.648 16.6967 194.648 13.25C194.648 9.80333 195.854 6.87367 198.267 4.461C200.648 2.07967 203.578 0.888999 207.056 0.888999C210.534 0.888999 213.464 2.07967 215.845 4.461C218.258 6.87367 219.464 9.80333 219.464 13.25C219.464 16.6967 218.258 19.6263 215.845 22.039ZM199.724 13.25C199.724 15.3807 200.429 17.151 201.839 18.561C203.249 19.971 204.988 20.676 207.056 20.676C209.124 20.676 210.863 19.971 212.273 18.561C213.683 17.151 214.388 15.3807 214.388 13.25C214.388 11.1193 213.683 9.349 212.273 7.939C210.863 6.529 209.124 5.824 207.056 5.824C204.988 5.824 203.249 6.529 201.839 7.939C200.429 9.349 199.724 11.1193 199.724 13.25ZM235.146 25.611C231.605 25.611 228.644 24.4203 226.263 22.039C223.913 19.6263 222.738 16.6967 222.738 13.25C222.738 9.74067 223.913 6.811 226.263 4.461C228.644 2.07967 231.605 0.888999 235.146 0.888999C237.433 0.888999 239.517 1.43733 241.397 2.534C243.277 3.63067 244.687 5.10333 245.627 6.952L241.256 9.49C240.723 8.362 239.908 7.48467 238.812 6.858C237.746 6.2 236.509 5.871 235.099 5.871C233.031 5.871 231.292 6.576 229.882 7.986C228.503 9.42733 227.814 11.182 227.814 13.25C227.814 15.318 228.503 17.0727 229.882 18.514C231.292 19.924 233.031 20.629 235.099 20.629C236.477 20.629 237.715 20.3157 238.812 19.689C239.94 19.031 240.786 18.138 241.35 17.01L245.721 19.501C244.718 21.381 243.261 22.8693 241.35 23.966C239.47 25.0627 237.402 25.611 235.146 25.611ZM246.669 1.5H267.114V6.388H259.453V25H254.377V6.388H246.669V1.5ZM289.512 22.039C287.131 24.4203 284.201 25.611 280.723 25.611C277.245 25.611 274.315 24.4203 271.934 22.039C269.521 19.6263 268.315 16.6967 268.315 13.25C268.315 9.80333 269.521 6.87367 271.934 4.461C274.315 2.07967 277.245 0.888999 280.723 0.888999C284.201 0.888999 287.131 2.07967 289.512 4.461C291.925 6.87367 293.131 9.80333 293.131 13.25C293.131 16.6967 291.925 19.6263 289.512 22.039ZM273.391 13.25C273.391 15.3807 274.096 17.151 275.506 18.561C276.916 19.971 278.655 20.676 280.723 20.676C282.791 20.676 284.53 19.971 285.94 18.561C287.35 17.151 288.055 15.3807 288.055 13.25C288.055 11.1193 287.35 9.349 285.94 7.939C284.53 6.529 282.791 5.824 280.723 5.824C278.655 5.824 276.916 6.529 275.506 7.939C274.096 9.349 273.391 11.1193 273.391 13.25ZM2.961 50.5H23.876V74H18.8V55.294H8.037V74H2.961V50.5ZM43.0667 49.889C46.2627 49.889 49.02 51.0953 51.3387 53.508C53.626 55.8893 54.7697 58.8033 54.7697 62.25C54.7697 65.728 53.626 68.6577 51.3387 71.039C49.0514 73.4203 46.294 74.611 43.0667 74.611C39.526 74.611 36.7844 73.295 34.8417 70.663V83.4H29.7657V50.5H34.8417V53.884C36.753 51.2207 39.4947 49.889 43.0667 49.889ZM36.9567 67.655C38.3667 69.065 40.137 69.77 42.2677 69.77C44.3984 69.77 46.1687 69.065 47.5787 67.655C48.9887 66.2137 49.6937 64.412 49.6937 62.25C49.6937 60.088 48.9887 58.302 47.5787 56.892C46.1687 55.4507 44.3984 54.73 42.2677 54.73C40.137 54.73 38.3667 55.4507 36.9567 56.892C35.5467 58.302 34.8417 60.088 34.8417 62.25C34.8417 64.3807 35.5467 66.1823 36.9567 67.655ZM64.3522 65.399L76.3842 50.5H80.2852V74H75.3032V59.054L63.2712 74H59.3702V50.5H64.3522V65.399ZM99.4759 49.889C102.672 49.889 105.429 51.0953 107.748 53.508C110.035 55.8893 111.179 58.8033 111.179 62.25C111.179 65.728 110.035 68.6577 107.748 71.039C105.461 73.4203 102.703 74.611 99.4759 74.611C95.9352 74.611 93.1935 73.295 91.2509 70.663V83.4H86.1749V50.5H91.2509V53.884C93.1622 51.2207 95.9039 49.889 99.4759 49.889ZM93.3659 67.655C94.7759 69.065 96.5462 69.77 98.6769 69.77C100.808 69.77 102.578 69.065 103.988 67.655C105.398 66.2137 106.103 64.412 106.103 62.25C106.103 60.088 105.398 58.302 103.988 56.892C102.578 55.4507 100.808 54.73 98.6769 54.73C96.5462 54.73 94.7759 55.4507 93.3659 56.892C91.9559 58.302 91.2509 60.088 91.2509 62.25C91.2509 64.3807 91.9559 66.1823 93.3659 67.655ZM135.66 71.039C133.279 73.4203 130.349 74.611 126.871 74.611C123.393 74.611 120.464 73.4203 118.082 71.039C115.67 68.6263 114.463 65.6967 114.463 62.25C114.463 58.8033 115.67 55.8737 118.082 53.461C120.464 51.0797 123.393 49.889 126.871 49.889C130.349 49.889 133.279 51.0797 135.66 53.461C138.073 55.8737 139.279 58.8033 139.279 62.25C139.279 65.6967 138.073 68.6263 135.66 71.039ZM119.539 62.25C119.539 64.3807 120.244 66.151 121.654 67.561C123.064 68.971 124.803 69.676 126.871 69.676C128.939 69.676 130.678 68.971 132.088 67.561C133.498 66.151 134.203 64.3807 134.203 62.25C134.203 60.1193 133.498 58.349 132.088 56.939C130.678 55.529 128.939 54.824 126.871 54.824C124.803 54.824 123.064 55.529 121.654 56.939C120.244 58.349 119.539 60.1193 119.539 62.25ZM163.09 62.015L172.255 74H166.474L158.484 63.143V74H153.502V63.237L145.512 74H139.731L148.896 62.015L140.201 50.5H145.982L153.502 60.793V50.5H158.484V60.84L166.004 50.5H171.785L163.09 62.015ZM196.586 50.5V69.206H199.735V80.298H194.753V74H178.632V80.298H173.65V69.206H176.517C177.959 67.2007 178.679 64.365 178.679 60.699V50.5H196.586ZM182.11 69.206H191.604V55.153H183.661V60.699C183.661 64.083 183.144 66.9187 182.11 69.206ZM225.641 64.412H206.935C207.311 66.1667 208.157 67.5297 209.473 68.501C210.821 69.4723 212.481 69.958 214.455 69.958C217.119 69.958 219.14 68.9867 220.518 67.044L224.701 69.488C222.414 72.9033 218.983 74.611 214.408 74.611C210.617 74.611 207.531 73.4517 205.149 71.133C202.799 68.783 201.624 65.822 201.624 62.25C201.624 58.772 202.784 55.8423 205.102 53.461C207.39 51.0797 210.366 49.889 214.032 49.889C217.448 49.889 220.268 51.0953 222.492 53.508C224.717 55.9207 225.829 58.8503 225.829 62.297C225.829 62.9237 225.767 63.6287 225.641 64.412ZM206.888 60.276H220.706C220.362 58.4273 219.578 57.0017 218.356 55.999C217.166 54.9963 215.709 54.495 213.985 54.495C212.105 54.495 210.539 55.012 209.285 56.046C208.032 57.08 207.233 58.49 206.888 60.276ZM246.135 59.853V50.5H251.211V74H246.135V64.647H235.372V74H230.296V50.5H235.372V59.853H246.135ZM272.94 59.853V50.5H278.016V74H272.94V64.647H262.177V74H257.101V50.5H262.177V59.853H272.94ZM288.981 58.49H294.151C296.689 58.49 298.742 59.2107 300.308 60.652C301.906 62.062 302.705 63.9263 302.705 66.245C302.705 68.5323 301.906 70.3967 300.308 71.838C298.742 73.2793 296.689 74 294.151 74H283.905V50.5H288.981V58.49ZM305.525 74V50.5H310.601V74H305.525ZM288.981 69.441H294.198C295.201 69.441 296.031 69.1433 296.689 68.548C297.379 67.9527 297.723 67.185 297.723 66.245C297.723 65.305 297.394 64.5373 296.736 63.942C296.078 63.3467 295.232 63.049 294.198 63.049H288.981V69.441ZM333.507 47.21H320.347V42.792H333.507V47.21ZM321.475 65.399L333.507 50.5H337.408V74H332.426V59.054L320.394 74H316.493V50.5H321.475V65.399ZM365.952 74.611C362.38 74.611 359.435 73.4517 357.116 71.133C354.86 68.783 353.732 65.7907 353.732 62.156C353.732 58.208 354.327 55.1373 355.518 52.944C356.677 50.782 359.09 48.7923 362.756 46.975C362.881 46.9123 363.085 46.8183 363.367 46.693C363.68 46.5363 364.009 46.3797 364.354 46.223C364.699 46.0663 365.043 45.9097 365.388 45.753C366.704 45.1577 367.519 44.7817 367.832 44.625C368.02 44.531 368.568 44.1863 369.477 43.591C370.574 42.8077 371.31 41.6953 371.686 40.254L375.822 42.651C375.665 44.3743 374.584 45.9567 372.579 47.398C372.234 47.7113 371.592 48.0873 370.652 48.526L368.631 49.466L366.281 50.453C364.244 51.2677 362.74 52.098 361.769 52.944C360.798 53.79 360.124 54.871 359.748 56.187C361.628 54.0563 364.182 52.991 367.409 52.991C370.166 52.991 372.563 53.978 374.6 55.952C376.668 57.926 377.702 60.4797 377.702 63.613C377.702 66.809 376.605 69.441 374.412 71.509C372.25 73.577 369.43 74.611 365.952 74.611ZM365.905 69.864C367.879 69.864 369.493 69.2843 370.746 68.125C371.999 66.9343 372.626 65.4303 372.626 63.613C372.626 61.7643 371.999 60.2447 370.746 59.054C369.524 57.8633 367.926 57.268 365.952 57.268C364.197 57.268 362.615 57.832 361.205 58.96C359.795 60.0253 359.09 61.498 359.09 63.378C359.09 65.258 359.748 66.809 361.064 68.031C362.38 69.253 363.994 69.864 365.905 69.864ZM400.327 53.837V50.5H405.403V74H400.327V70.616C398.416 73.2793 395.674 74.611 392.102 74.611C388.875 74.611 386.117 73.4203 383.83 71.039C381.543 68.6577 380.399 65.728 380.399 62.25C380.399 58.772 381.543 55.8423 383.83 53.461C386.117 51.0797 388.875 49.889 392.102 49.889C395.674 49.889 398.416 51.205 400.327 53.837ZM387.59 67.655C389 69.065 390.77 69.77 392.901 69.77C395.032 69.77 396.802 69.065 398.212 67.655C399.622 66.2137 400.327 64.412 400.327 62.25C400.327 60.088 399.622 58.302 398.212 56.892C396.802 55.4507 395.032 54.73 392.901 54.73C390.77 54.73 389 55.4507 387.59 56.892C386.18 58.302 385.475 60.088 385.475 62.25C385.475 64.3807 386.18 66.1823 387.59 67.655ZM424.62 49.889C427.816 49.889 430.574 51.0953 432.892 53.508C435.18 55.8893 436.323 58.8033 436.323 62.25C436.323 65.728 435.18 68.6577 432.892 71.039C430.605 73.4203 427.848 74.611 424.62 74.611C421.08 74.611 418.338 73.295 416.395 70.663V83.4H411.319V50.5H416.395V53.884C418.307 51.2207 421.048 49.889 424.62 49.889ZM418.51 67.655C419.92 69.065 421.691 69.77 423.821 69.77C425.952 69.77 427.722 69.065 429.132 67.655C430.542 66.2137 431.247 64.412 431.247 62.25C431.247 60.088 430.542 58.302 429.132 56.892C427.722 55.4507 425.952 54.73 423.821 54.73C421.691 54.73 419.92 55.4507 418.51 56.892C417.1 58.302 416.395 60.088 416.395 62.25C416.395 64.3807 417.1 66.1823 418.51 67.655ZM459.724 50.5H464.894V74H459.959V58.537L453.191 69.3H452.58L445.859 58.584V74H440.924V50.5H446.094L452.909 61.357L459.724 50.5ZM493.459 64.412H474.753C475.129 66.1667 475.975 67.5297 477.291 68.501C478.638 69.4723 480.299 69.958 482.273 69.958C484.936 69.958 486.957 68.9867 488.336 67.044L492.519 69.488C490.232 72.9033 486.801 74.611 482.226 74.611C478.435 74.611 475.348 73.4517 472.967 71.133C470.617 68.783 469.442 65.822 469.442 62.25C469.442 58.772 470.601 55.8423 472.92 53.461C475.207 51.0797 478.184 49.889 481.85 49.889C485.265 49.889 488.085 51.0953 490.31 53.508C492.535 55.9207 493.647 58.8503 493.647 62.297C493.647 62.9237 493.584 63.6287 493.459 64.412ZM474.706 60.276H488.524C488.179 58.4273 487.396 57.0017 486.174 55.999C484.983 54.9963 483.526 54.495 481.803 54.495C479.923 54.495 478.356 55.012 477.103 56.046C475.85 57.08 475.051 58.49 474.706 60.276ZM513.952 59.853V50.5H519.028V74H513.952V64.647H503.189V74H498.113V50.5H503.189V59.853H513.952ZM529.947 63.66H525.952L524.918 50.5V41.1H531.028V50.5L529.947 63.66ZM527.973 67.514C528.944 67.514 529.775 67.8587 530.464 68.548C531.153 69.2373 531.498 70.0677 531.498 71.039C531.498 72.0103 531.153 72.8407 530.464 73.53C529.775 74.2193 528.944 74.564 527.973 74.564C527.002 74.564 526.171 74.2193 525.482 73.53C524.793 72.8407 524.448 72.0103 524.448 71.039C524.448 70.0677 524.777 69.2373 525.435 68.548C526.124 67.8587 526.97 67.514 527.973 67.514Z" fill="#0C0FE9"/>
</svg>
