<svg width="595" height="141" viewBox="0 0 595 141" fill="none" xmlns="http://www.w3.org/2000/svg">
<path d="M34.9 26.3C39.8333 28.6333 42.3 32.4667 42.3 37.8C42.3 42.0667 40.8333 45.5 37.9 48.1C35.0333 50.7 31.0333 52 25.9 52H0.3L0.3 2H23.9C28.9667 2 32.9333 3.26667 35.8 5.8C38.6667 8.33333 40.1 11.6667 40.1 15.8C40.1 20.5333 38.3667 24.0333 34.9 26.3ZM23.1 11.2H10.6L10.6 22.3H23.1C27.5 22.3 29.7 20.4333 29.7 16.7C29.7 13.0333 27.5 11.2 23.1 11.2ZM10.6 42.6H24.9C29.4333 42.6 31.7 40.6333 31.7 36.7C31.7 34.9667 31.1 33.6333 29.9 32.7C28.7 31.7 27.0333 31.2 24.9 31.2H10.6V42.6ZM74.6813 53.3C67.1479 53.3 60.8479 50.7667 55.7813 45.7C50.7813 40.5667 48.2813 34.3333 48.2813 27C48.2813 19.5333 50.7813 13.3 55.7813 8.3C60.8479 3.23333 67.1479 0.699999 74.6813 0.699999C79.5479 0.699999 83.9813 1.86667 87.9813 4.2C91.9813 6.53333 94.9813 9.66667 96.9813 13.6L87.6813 19C86.5479 16.6 84.8146 14.7333 82.4813 13.4C80.2146 12 77.5813 11.3 74.5813 11.3C70.1813 11.3 66.4813 12.8 63.4813 15.8C60.5479 18.8667 59.0813 22.6 59.0813 27C59.0813 31.4 60.5479 35.1333 63.4813 38.2C66.4813 41.2 70.1813 42.7 74.5813 42.7C77.5146 42.7 80.1479 42.0333 82.4813 40.7C84.8813 39.3 86.6813 37.4 87.8813 35L97.1813 40.3C95.0479 44.3 91.9479 47.4667 87.8813 49.8C83.8813 52.1333 79.4813 53.3 74.6813 53.3ZM152.506 31.6H112.706C113.506 35.3333 115.306 38.2333 118.106 40.3C120.973 42.3667 124.506 43.4 128.706 43.4C134.373 43.4 138.673 41.3333 141.606 37.2L150.506 42.4C145.64 49.6667 138.34 53.3 128.606 53.3C120.54 53.3 113.973 50.8333 108.906 45.9C103.906 40.9 101.406 34.6 101.406 27C101.406 19.6 103.873 13.3667 108.806 8.3C113.673 3.23333 120.006 0.699999 127.806 0.699999C135.073 0.699999 141.073 3.26667 145.806 8.4C150.54 13.5333 152.906 19.7667 152.906 27.1C152.906 28.4333 152.773 29.9333 152.506 31.6ZM112.606 22.8H142.006C141.273 18.8667 139.606 15.8333 137.006 13.7C134.473 11.5667 131.373 10.5 127.706 10.5C123.706 10.5 120.373 11.6 117.706 13.8C115.04 16 113.34 19 112.606 22.8ZM211.009 53.3C203.476 53.3 197.176 50.7667 192.109 45.7C187.109 40.5667 184.609 34.3333 184.609 27C184.609 19.5333 187.109 13.3 192.109 8.3C197.176 3.23333 203.476 0.699999 211.009 0.699999C215.876 0.699999 220.309 1.86667 224.309 4.2C228.309 6.53333 231.309 9.66667 233.309 13.6L224.009 19C222.876 16.6 221.143 14.7333 218.809 13.4C216.543 12 213.909 11.3 210.909 11.3C206.509 11.3 202.809 12.8 199.809 15.8C196.876 18.8667 195.409 22.6 195.409 27C195.409 31.4 196.876 35.1333 199.809 38.2C202.809 41.2 206.509 42.7 210.909 42.7C213.843 42.7 216.476 42.0333 218.809 40.7C221.209 39.3 223.009 37.4 224.209 35L233.509 40.3C231.376 44.3 228.276 47.4667 224.209 49.8C220.209 52.1333 215.809 53.3 211.009 53.3ZM252.409 19H263.409C268.809 19 273.175 20.5333 276.509 23.6C279.909 26.6 281.609 30.5667 281.609 35.5C281.609 40.3667 279.909 44.3333 276.509 47.4C273.175 50.4667 268.809 52 263.409 52H241.609V2H252.409V19ZM287.609 52V2H298.409V52H287.609ZM252.409 42.3H263.509C265.642 42.3 267.409 41.6667 268.809 40.4C270.275 39.1333 271.009 37.5 271.009 35.5C271.009 33.5 270.309 31.8667 268.909 30.6C267.509 29.3333 265.709 28.7 263.509 28.7H252.409V42.3ZM305.645 2L349.145 2V12.4L332.845 12.4V52H322.045V12.4H305.645V2ZM367.252 19H378.252C383.652 19 388.019 20.5333 391.352 23.6C394.752 26.6 396.452 30.5667 396.452 35.5C396.452 40.3667 394.752 44.3333 391.352 47.4C388.019 50.4667 383.652 52 378.252 52L356.452 52V2H367.252V19ZM402.452 52V2L413.252 2V52H402.452ZM367.252 42.3H378.352C380.486 42.3 382.252 41.6667 383.652 40.4C385.119 39.1333 385.852 37.5 385.852 35.5C385.852 33.5 385.152 31.8667 383.752 30.6C382.352 29.3333 380.552 28.7 378.352 28.7H367.252V42.3ZM10.9 120.7L36.5 89H44.8V139H34.2V107.2L8.6 139H0.3L0.3 89H10.9V120.7ZM105.931 140.3C98.3979 140.3 92.0979 137.767 87.0313 132.7C82.0313 127.567 79.5313 121.333 79.5313 114C79.5313 106.533 82.0313 100.3 87.0313 95.3C92.0979 90.2333 98.3979 87.7 105.931 87.7C110.798 87.7 115.231 88.8667 119.231 91.2C123.231 93.5333 126.231 96.6667 128.231 100.6L118.931 106C117.798 103.6 116.065 101.733 113.731 100.4C111.465 99 108.831 98.3 105.831 98.3C101.431 98.3 97.7313 99.8 94.7313 102.8C91.7979 105.867 90.3313 109.6 90.3313 114C90.3313 118.4 91.7979 122.133 94.7313 125.2C97.7313 128.2 101.431 129.7 105.831 129.7C108.765 129.7 111.398 129.033 113.731 127.7C116.131 126.3 117.931 124.4 119.131 122L128.431 127.3C126.298 131.3 123.198 134.467 119.131 136.8C115.131 139.133 110.731 140.3 105.931 140.3ZM165.954 111.9V89H176.754V139H165.954V122.1C162.021 123.567 157.821 124.3 153.354 124.3C147.021 124.3 142.087 122.767 138.554 119.7C135.021 116.567 133.254 112.067 133.254 106.2V89H144.054V105.2C144.054 111.2 147.621 114.2 154.754 114.2C158.821 114.2 162.554 113.433 165.954 111.9ZM228.963 96.1V89H239.763V139H228.963V131.8C224.896 137.467 219.063 140.3 211.463 140.3C204.596 140.3 198.729 137.767 193.863 132.7C188.996 127.633 186.563 121.4 186.563 114C186.563 106.6 188.996 100.367 193.863 95.3C198.729 90.2333 204.596 87.7 211.463 87.7C219.063 87.7 224.896 90.5 228.963 96.1ZM201.863 125.5C204.863 128.5 208.629 130 213.163 130C217.696 130 221.463 128.5 224.463 125.5C227.463 122.433 228.963 118.6 228.963 114C228.963 109.4 227.463 105.6 224.463 102.6C221.463 99.5333 217.696 98 213.163 98C208.629 98 204.863 99.5333 201.863 102.6C198.863 105.6 197.363 109.4 197.363 114C197.363 118.533 198.863 122.367 201.863 125.5ZM275.951 140.3C268.417 140.3 262.117 137.767 257.051 132.7C252.051 127.567 249.551 121.333 249.551 114C249.551 106.533 252.051 100.3 257.051 95.3C262.117 90.2333 268.417 87.7 275.951 87.7C280.817 87.7 285.251 88.8667 289.251 91.2C293.251 93.5333 296.251 96.6667 298.251 100.6L288.951 106C287.817 103.6 286.084 101.733 283.751 100.4C281.484 99 278.851 98.3 275.851 98.3C271.451 98.3 267.751 99.8 264.751 102.8C261.817 105.867 260.351 109.6 260.351 114C260.351 118.4 261.817 122.133 264.751 125.2C267.751 128.2 271.451 129.7 275.851 129.7C278.784 129.7 281.417 129.033 283.751 127.7C286.151 126.3 287.951 124.4 289.151 122L298.451 127.3C296.317 131.3 293.217 134.467 289.151 136.8C285.151 139.133 280.751 140.3 275.951 140.3ZM300.469 89H343.969V99.4H327.669V139H316.869V99.4H300.469V89ZM352.149 89L390.449 89V139H379.649V99.4L362.949 99.4V118C362.949 125.8 361.249 131.4 357.849 134.8C354.449 138.2 349.483 139.6 342.949 139V128.9C346.016 129.433 348.316 128.8 349.849 127C351.383 125.133 352.149 121.967 352.149 117.5V89ZM413.634 120.7L439.234 89H447.534V139H436.934V107.2L411.334 139H403.034V89H413.634V120.7ZM494.666 113.3C499.599 115.633 502.066 119.467 502.066 124.8C502.066 129.067 500.599 132.5 497.666 135.1C494.799 137.7 490.799 139 485.666 139H460.066V89H483.666C488.732 89 492.699 90.2667 495.566 92.8C498.432 95.3333 499.866 98.6667 499.866 102.8C499.866 107.533 498.132 111.033 494.666 113.3ZM482.866 98.2H470.366V109.3H482.866C487.266 109.3 489.466 107.433 489.466 103.7C489.466 100.033 487.266 98.2 482.866 98.2ZM470.366 129.6H484.666C489.199 129.6 491.466 127.633 491.466 123.7C491.466 121.967 490.866 120.633 489.666 119.7C488.466 118.7 486.799 118.2 484.666 118.2H470.366V129.6ZM521.647 106H532.647C538.047 106 542.414 107.533 545.747 110.6C549.147 113.6 550.847 117.567 550.847 122.5C550.847 127.367 549.147 131.333 545.747 134.4C542.414 137.467 538.047 139 532.647 139H510.847V89H521.647V106ZM556.847 139V89H567.647V139H556.847ZM521.647 129.3H532.747C534.88 129.3 536.647 128.667 538.047 127.4C539.514 126.133 540.247 124.5 540.247 122.5C540.247 120.5 539.547 118.867 538.147 117.6C536.747 116.333 534.947 115.7 532.747 115.7H521.647V129.3ZM590.883 117H582.383L580.183 89V69H593.183V89L590.883 117ZM586.683 125.2C588.749 125.2 590.516 125.933 591.983 127.4C593.449 128.867 594.183 130.633 594.183 132.7C594.183 134.767 593.449 136.533 591.983 138C590.516 139.467 588.749 140.2 586.683 140.2C584.616 140.2 582.849 139.467 581.383 138C579.916 136.533 579.183 134.767 579.183 132.7C579.183 130.633 579.883 128.867 581.283 127.4C582.749 125.933 584.549 125.2 586.683 125.2Z" fill="#0C0FE9"/>
</svg>
