<svg width="697" height="91" viewBox="0 0 697 91" fill="none" xmlns="http://www.w3.org/2000/svg">
<path d="M27.2 56.4L40 20H51.5L32.3 71.6C29.9667 77.9333 26.7 82.6667 22.5 85.8C18.3 88.9333 13.4333 90.3333 7.9 90L7.9 79.9C14.3 80.3 18.7333 77.1 21.2 70.3L21.5 69.6L0.5 20H12L27.2 56.4ZM84.2531 44.4L102.953 70H90.4531L78.0531 52.9L65.5531 70H52.9531L71.7531 44.3L53.9531 20L66.4531 20L77.9531 35.8L89.4531 20H102.053L84.2531 44.4ZM168.906 39.9V20H179.706V70H168.906V50.1H146.006V70H135.206V20H146.006V39.9H168.906ZM231.838 27.1V20H242.638V70H231.838V62.8C227.771 68.4667 221.938 71.3 214.338 71.3C207.471 71.3 201.604 68.7667 196.738 63.7C191.871 58.6333 189.438 52.4 189.438 45C189.438 37.6 191.871 31.3667 196.738 26.3C201.604 21.2333 207.471 18.7 214.338 18.7C221.938 18.7 227.771 21.5 231.838 27.1ZM204.738 56.5C207.738 59.5 211.504 61 216.038 61C220.571 61 224.338 59.5 227.338 56.5C230.338 53.4333 231.838 49.6 231.838 45C231.838 40.4 230.338 36.6 227.338 33.6C224.338 30.5333 220.571 29 216.038 29C211.504 29 207.738 30.5333 204.738 33.6C201.738 36.6 200.238 40.4 200.238 45C200.238 49.5333 201.738 53.3667 204.738 56.5ZM278.826 71.3C271.292 71.3 264.992 68.7667 259.926 63.7C254.926 58.5667 252.426 52.3333 252.426 45C252.426 37.5333 254.926 31.3 259.926 26.3C264.992 21.2333 271.292 18.7 278.826 18.7C283.692 18.7 288.126 19.8667 292.126 22.2C296.126 24.5333 299.126 27.6667 301.126 31.6L291.826 37C290.692 34.6 288.959 32.7333 286.626 31.4C284.359 30 281.726 29.3 278.726 29.3C274.326 29.3 270.626 30.8 267.626 33.8C264.692 36.8667 263.226 40.6 263.226 45C263.226 49.4 264.692 53.1333 267.626 56.2C270.626 59.2 274.326 60.7 278.726 60.7C281.659 60.7 284.292 60.0333 286.626 58.7C289.026 57.3 290.826 55.4 292.026 53L301.326 58.3C299.192 62.3 296.092 65.4667 292.026 67.8C288.026 70.1333 283.626 71.3 278.826 71.3ZM349.425 20H360.425V70H349.925V37.1L335.525 60H334.225L319.925 37.2V70H309.425V20L320.425 20L334.925 43.1L349.425 20ZM421.202 49.6L381.402 49.6C382.202 53.3333 384.002 56.2333 386.802 58.3C389.668 60.3667 393.202 61.4 397.402 61.4C403.068 61.4 407.368 59.3333 410.302 55.2L419.202 60.4C414.335 67.6667 407.035 71.3 397.302 71.3C389.235 71.3 382.668 68.8333 377.602 63.9C372.602 58.9 370.102 52.6 370.102 45C370.102 37.6 372.568 31.3667 377.502 26.3C382.368 21.2333 388.702 18.7 396.502 18.7C403.768 18.7 409.768 21.2667 414.502 26.4C419.235 31.5333 421.602 37.7667 421.602 45.1C421.602 46.4333 421.468 47.9333 421.202 49.6ZM381.302 40.8H410.702C409.968 36.8667 408.302 33.8333 405.702 31.7C403.168 29.5667 400.068 28.5 396.402 28.5C392.402 28.5 389.068 29.6 386.402 31.8C383.735 34 382.035 37 381.302 40.8ZM490.305 59.8V20H501.105V70H431.105V20H441.905V59.8H460.705V20H471.505V59.8H490.305ZM524.224 51.7L549.824 20H558.124V70H547.524V38.2L521.924 70H513.624V20H524.224V51.7ZM574.555 20L612.855 20V70H602.055V30.4H585.355V49C585.355 56.8 583.655 62.4 580.255 65.8C576.855 69.2 571.889 70.6 565.355 70V59.9C568.422 60.4333 570.722 59.8 572.255 58C573.789 56.1333 574.555 52.9667 574.555 48.5V20ZM636.041 51.7L661.641 20H669.941V70H659.341V38.2L633.741 70H625.441V20H636.041V51.7ZM693.172 48H684.672L682.472 20V-4.76837e-06H695.472V20L693.172 48ZM688.972 56.2C691.039 56.2 692.805 56.9333 694.272 58.4C695.739 59.8667 696.472 61.6333 696.472 63.7C696.472 65.7667 695.739 67.5333 694.272 69C692.805 70.4667 691.039 71.2 688.972 71.2C686.905 71.2 685.139 70.4667 683.672 69C682.205 67.5333 681.472 65.7667 681.472 63.7C681.472 61.6333 682.172 59.8667 683.572 58.4C685.039 56.9333 686.839 56.2 688.972 56.2Z" fill="#0C0FE9"/>
</svg>
