<svg width="753" height="215" viewBox="0 0 753 215" fill="none" xmlns="http://www.w3.org/2000/svg">
<path d="M37 40.9V21H47.8L47.8 71H37V51.1H14.1V71H3.3L3.3 21H14.1V40.9H37ZM81.2313 57.4L94.0313 21H105.531L86.3313 72.6C83.9979 78.9333 80.7313 83.6667 76.5313 86.8C72.3313 89.9333 67.4646 91.3333 61.9313 91V80.9C68.3313 81.3 72.7646 78.1 75.2313 71.3L75.5313 70.6L54.5313 21L66.0313 21L81.2313 57.4ZM137.284 21H181.784V71H170.984V31.2H148.084V71H137.284V21ZM210.916 14L218.916 0.499996L231.916 0.499996L221.316 14L210.916 14ZM199.216 64.7C204.282 69.7667 210.516 72.3 217.916 72.3C225.316 72.3 231.549 69.7667 236.616 64.7C241.749 59.5667 244.316 53.3333 244.316 46C244.316 38.6667 241.749 32.4333 236.616 27.3C231.549 22.2333 225.316 19.7 217.916 19.7C210.516 19.7 204.282 22.2333 199.216 27.3C194.082 32.4333 191.516 38.6667 191.516 46C191.516 53.3333 194.082 59.5667 199.216 64.7ZM217.916 61.8C213.516 61.8 209.816 60.3 206.816 57.3C203.816 54.3 202.316 50.5333 202.316 46C202.316 41.4667 203.816 37.7 206.816 34.7C209.816 31.7 213.516 30.2 217.916 30.2C222.316 30.2 226.016 31.7 229.016 34.7C232.016 37.7 233.516 41.4667 233.516 46C233.516 50.5333 232.016 54.3 229.016 57.3C226.016 60.3 222.316 61.8 217.916 61.8ZM256.516 21H294.816V71H284.016V31.4H267.316V50C267.316 57.8 265.616 63.4 262.216 66.8C258.816 70.2 253.85 71.6 247.316 71V60.9C250.383 61.4333 252.683 60.8 254.216 59C255.75 57.1333 256.516 53.9667 256.516 49.5V21ZM341.102 40.9V21H351.902V71H341.102V51.1H318.202V71H307.402V21L318.202 21V40.9H341.102ZM406.733 64.7C401.666 69.7667 395.433 72.3 388.033 72.3C380.633 72.3 374.399 69.7667 369.333 64.7C364.199 59.5667 361.633 53.3333 361.633 46C361.633 38.6667 364.199 32.4333 369.333 27.3C374.399 22.2333 380.633 19.7 388.033 19.7C395.433 19.7 401.666 22.2333 406.733 27.3C411.866 32.4333 414.433 38.6667 414.433 46C414.433 53.3333 411.866 59.5667 406.733 64.7ZM372.433 46C372.433 50.5333 373.933 54.3 376.933 57.3C379.933 60.3 383.633 61.8 388.033 61.8C392.433 61.8 396.133 60.3 399.133 57.3C402.133 54.3 403.633 50.5333 403.633 46C403.633 41.4667 402.133 37.7 399.133 34.7C396.133 31.7 392.433 30.2 388.033 30.2C383.633 30.2 379.933 31.7 376.933 34.7C373.933 37.7 372.433 41.4667 372.433 46ZM423.195 59H435.195L428.195 85H419.195L423.195 59ZM506.259 45.3C511.193 47.6333 513.659 51.4667 513.659 56.8C513.659 61.0667 512.193 64.5 509.259 67.1C506.393 69.7 502.393 71 497.259 71H471.659V21H495.259C500.326 21 504.293 22.2667 507.159 24.8C510.026 27.3333 511.459 30.6667 511.459 34.8C511.459 39.5333 509.726 43.0333 506.259 45.3ZM494.459 30.2H481.959V41.3H494.459C498.859 41.3 501.059 39.4333 501.059 35.7C501.059 32.0333 498.859 30.2 494.459 30.2ZM481.959 61.6H496.259C500.793 61.6 503.059 59.6333 503.059 55.7C503.059 53.9667 502.459 52.6333 501.259 51.7C500.059 50.7 498.393 50.2 496.259 50.2H481.959V61.6ZM533.241 38H544.241C549.641 38 554.007 39.5333 557.341 42.6C560.741 45.6 562.441 49.5667 562.441 54.5C562.441 59.3667 560.741 63.3333 557.341 66.4C554.007 69.4667 549.641 71 544.241 71H522.441V21H533.241V38ZM568.441 71V21L579.241 21V71H568.441ZM533.241 61.3H544.341C546.474 61.3 548.241 60.6667 549.641 59.4C551.107 58.1333 551.841 56.5 551.841 54.5C551.841 52.5 551.141 50.8667 549.741 49.6C548.341 48.3333 546.541 47.7 544.341 47.7H533.241V61.3ZM51.6 173.6H11.8C12.6 177.333 14.4 180.233 17.2 182.3C20.0667 184.367 23.6 185.4 27.8 185.4C33.4667 185.4 37.7667 183.333 40.7 179.2L49.6 184.4C44.7333 191.667 37.4333 195.3 27.7 195.3C19.6333 195.3 13.0667 192.833 8 187.9C3 182.9 0.5 176.6 0.5 169C0.5 161.6 2.96667 155.367 7.9 150.3C12.7667 145.233 19.1 142.7 26.9 142.7C34.1667 142.7 40.1667 145.267 44.9 150.4C49.6333 155.533 52 161.767 52 169.1C52 170.433 51.8667 171.933 51.6 173.6ZM11.7 164.8H41.1C40.3667 160.867 38.7 157.833 36.1 155.7C33.5667 153.567 30.4667 152.5 26.8 152.5C22.8 152.5 19.4667 153.6 16.8 155.8C14.1333 158 12.4333 161 11.7 164.8ZM61.5031 144H95.0031V154.4H72.3031V194H61.5031V144ZM142.67 187.7C137.604 192.767 131.37 195.3 123.97 195.3C116.57 195.3 110.337 192.767 105.27 187.7C100.137 182.567 97.5703 176.333 97.5703 169C97.5703 161.667 100.137 155.433 105.27 150.3C110.337 145.233 116.57 142.7 123.97 142.7C131.37 142.7 137.604 145.233 142.67 150.3C147.804 155.433 150.37 161.667 150.37 169C150.37 176.333 147.804 182.567 142.67 187.7ZM108.37 169C108.37 173.533 109.87 177.3 112.87 180.3C115.87 183.3 119.57 184.8 123.97 184.8C128.37 184.8 132.07 183.3 135.07 180.3C138.07 177.3 139.57 173.533 139.57 169C139.57 164.467 138.07 160.7 135.07 157.7C132.07 154.7 128.37 153.2 123.97 153.2C119.57 153.2 115.87 154.7 112.87 157.7C109.87 160.7 108.37 164.467 108.37 169ZM213.436 142.7C220.236 142.7 226.103 145.267 231.036 150.4C235.903 155.467 238.336 161.667 238.336 169C238.336 176.4 235.903 182.633 231.036 187.7C226.169 192.767 220.303 195.3 213.436 195.3C205.903 195.3 200.069 192.5 195.936 186.9V214H185.136V144H195.936V151.2C200.003 145.533 205.836 142.7 213.436 142.7ZM200.436 180.5C203.436 183.5 207.203 185 211.736 185C216.269 185 220.036 183.5 223.036 180.5C226.036 177.433 227.536 173.6 227.536 169C227.536 164.4 226.036 160.6 223.036 157.6C220.036 154.533 216.269 153 211.736 153C207.203 153 203.436 154.533 200.436 157.6C197.436 160.6 195.936 164.4 195.936 169C195.936 173.533 197.436 177.367 200.436 180.5ZM287.724 151.1V144H298.524V194H287.724V186.8C283.658 192.467 277.824 195.3 270.224 195.3C263.358 195.3 257.491 192.767 252.624 187.7C247.758 182.633 245.324 176.4 245.324 169C245.324 161.6 247.758 155.367 252.624 150.3C257.491 145.233 263.358 142.7 270.224 142.7C277.824 142.7 283.658 145.5 287.724 151.1ZM260.624 180.5C263.624 183.5 267.391 185 271.924 185C276.458 185 280.224 183.5 283.224 180.5C286.224 177.433 287.724 173.6 287.724 169C287.724 164.4 286.224 160.6 283.224 157.6C280.224 154.533 276.458 153 271.924 153C267.391 153 263.624 154.533 260.624 157.6C257.624 160.6 256.124 164.4 256.124 169C256.124 173.533 257.624 177.367 260.624 180.5ZM339.213 168.4C344.546 170.8 347.213 174.767 347.213 180.3C347.213 184.633 345.446 188.233 341.913 191.1C338.379 193.9 333.579 195.3 327.513 195.3C317.446 195.3 310.646 191.3 307.113 183.3L315.913 178.1C317.713 183.1 321.613 185.6 327.613 185.6C330.413 185.6 332.613 185.033 334.212 183.9C335.813 182.7 336.613 181.133 336.613 179.2C336.613 177.467 335.979 176.1 334.713 175.1C333.446 174.033 331.679 173.5 329.413 173.5H322.313V164H327.613C329.813 164 331.513 163.5 332.713 162.5C333.979 161.433 334.613 160 334.613 158.2C334.613 156.467 333.913 155.067 332.513 154C331.113 152.867 329.246 152.3 326.913 152.3C321.913 152.3 318.446 154.5 316.513 158.9L307.713 153.9C311.379 146.433 317.713 142.7 326.713 142.7C332.313 142.7 336.746 144.133 340.013 147C343.346 149.8 345.013 153.233 345.013 157.3C345.013 162.3 343.079 166 339.213 168.4ZM379.234 195.3C371.634 195.3 365.368 192.833 360.434 187.9C355.634 182.9 353.234 176.533 353.234 168.8C353.234 160.4 354.501 153.867 357.034 149.2C359.501 144.6 364.634 140.367 372.434 136.5C372.701 136.367 373.134 136.167 373.734 135.9C374.401 135.567 375.101 135.233 375.834 134.9C376.568 134.567 377.301 134.233 378.034 133.9C380.834 132.633 382.568 131.833 383.234 131.5C383.634 131.3 384.801 130.567 386.734 129.3C389.068 127.633 390.634 125.267 391.434 122.2L400.234 127.3C399.901 130.967 397.601 134.333 393.334 137.4C392.601 138.067 391.234 138.867 389.234 139.8L384.934 141.8L379.934 143.9C375.601 145.633 372.401 147.4 370.334 149.2C368.268 151 366.834 153.3 366.034 156.1C370.034 151.567 375.468 149.3 382.334 149.3C388.201 149.3 393.301 151.4 397.634 155.6C402.034 159.8 404.234 165.233 404.234 171.9C404.234 178.7 401.901 184.3 397.234 188.7C392.634 193.1 386.634 195.3 379.234 195.3ZM379.134 185.2C383.334 185.2 386.768 183.967 389.434 181.5C392.101 178.967 393.434 175.767 393.434 171.9C393.434 167.967 392.101 164.733 389.434 162.2C386.834 159.667 383.434 158.4 379.234 158.4C375.501 158.4 372.134 159.6 369.134 162C366.134 164.267 364.634 167.4 364.634 171.4C364.634 175.4 366.034 178.7 368.834 181.3C371.634 183.9 375.068 185.2 379.134 185.2ZM452.373 151.1V144H463.173V194H452.373V186.8C448.306 192.467 442.473 195.3 434.873 195.3C428.006 195.3 422.139 192.767 417.273 187.7C412.406 182.633 409.973 176.4 409.973 169C409.973 161.6 412.406 155.367 417.273 150.3C422.139 145.233 428.006 142.7 434.873 142.7C442.473 142.7 448.306 145.5 452.373 151.1ZM425.273 180.5C428.273 183.5 432.039 185 436.573 185C441.106 185 444.873 183.5 447.873 180.5C450.873 177.433 452.373 173.6 452.373 169C452.373 164.4 450.873 160.6 447.873 157.6C444.873 154.533 441.106 153 436.573 153C432.039 153 428.273 154.533 425.273 157.6C422.273 160.6 420.773 164.4 420.773 169C420.773 173.533 422.273 177.367 425.273 180.5ZM479.661 144H517.961V194H507.161V154.4H490.461V173C490.461 180.8 488.761 186.4 485.361 189.8C481.961 193.2 476.994 194.6 470.461 194V183.9C473.528 184.433 475.828 183.8 477.361 182C478.894 180.133 479.661 176.967 479.661 172.5V144ZM551.446 180.4L564.246 144H575.746L556.546 195.6C554.213 201.933 550.946 206.667 546.746 209.8C542.546 212.933 537.679 214.333 532.146 214V203.9C538.546 204.3 542.979 201.1 545.446 194.3L545.746 193.6L524.746 144H536.246L551.446 180.4ZM628.846 173.6H589.046C589.846 177.333 591.646 180.233 594.446 182.3C597.313 184.367 600.846 185.4 605.046 185.4C610.713 185.4 615.013 183.333 617.946 179.2L626.846 184.4C621.979 191.667 614.679 195.3 604.946 195.3C596.879 195.3 590.313 192.833 585.246 187.9C580.246 182.9 577.746 176.6 577.746 169C577.746 161.6 580.213 155.367 585.146 150.3C590.013 145.233 596.346 142.7 604.146 142.7C611.413 142.7 617.413 145.267 622.146 150.4C626.879 155.533 629.246 161.767 629.246 169.1C629.246 170.433 629.113 171.933 628.846 173.6ZM588.946 164.8H618.346C617.613 160.867 615.946 157.833 613.346 155.7C610.813 153.567 607.713 152.5 604.046 152.5C600.046 152.5 596.713 153.6 594.046 155.8C591.379 158 589.679 161 588.946 164.8ZM631.496 144H674.996V154.4H658.696V194H647.896V154.4H631.496V144ZM728.651 173.6H688.851C689.651 177.333 691.451 180.233 694.251 182.3C697.117 184.367 700.651 185.4 704.851 185.4C710.517 185.4 714.817 183.333 717.751 179.2L726.651 184.4C721.784 191.667 714.484 195.3 704.751 195.3C696.684 195.3 690.117 192.833 685.051 187.9C680.051 182.9 677.551 176.6 677.551 169C677.551 161.6 680.017 155.367 684.951 150.3C689.817 145.233 696.151 142.7 703.951 142.7C711.217 142.7 717.217 145.267 721.951 150.4C726.684 155.533 729.051 161.767 729.051 169.1C729.051 170.433 728.917 171.933 728.651 173.6ZM688.751 164.8H718.151C717.417 160.867 715.751 157.833 713.151 155.7C710.617 153.567 707.517 152.5 703.851 152.5C699.851 152.5 696.517 153.6 693.851 155.8C691.184 158 689.484 161 688.751 164.8ZM749.254 172H740.754L738.554 144V124H751.554V144L749.254 172ZM745.054 180.2C747.121 180.2 748.887 180.933 750.354 182.4C751.821 183.867 752.554 185.633 752.554 187.7C752.554 189.767 751.821 191.533 750.354 193C748.887 194.467 747.121 195.2 745.054 195.2C742.987 195.2 741.221 194.467 739.754 193C738.287 191.533 737.554 189.767 737.554 187.7C737.554 185.633 738.254 183.867 739.654 182.4C741.121 180.933 742.921 180.2 745.054 180.2Z" fill="#0C0FE9"/>
</svg>
