<svg width="751" height="200" viewBox="0 0 751 200" fill="none" xmlns="http://www.w3.org/2000/svg">
<path d="M34 41.9V22H44.8L44.8 72H34L34 52.1H11.1V72H0.3L0.3 22H11.1L11.1 41.9H34ZM78.2313 58.4L91.0313 22H102.531L83.3313 73.6C80.9979 79.9333 77.7313 84.6667 73.5313 87.8C69.3313 90.9333 64.4646 92.3333 58.9313 92V81.9C65.3313 82.3 69.7646 79.1 72.2313 72.3L72.5313 71.6L51.5313 22H63.0313L78.2313 58.4ZM103.3 60H115.3L108.3 86H99.3L103.3 60ZM195.765 22V61.8H202.465V85.4H191.865V72H157.565V85.4H146.965V61.8H153.065C156.132 57.5333 157.665 51.5 157.665 43.7V22H195.765ZM164.965 61.8H185.165V31.9H168.265V43.7C168.265 50.9 167.165 56.9333 164.965 61.8ZM251.584 65.7C246.518 70.7667 240.284 73.3 232.884 73.3C225.484 73.3 219.251 70.7667 214.184 65.7C209.051 60.5667 206.484 54.3333 206.484 47C206.484 39.6667 209.051 33.4333 214.184 28.3C219.251 23.2333 225.484 20.7 232.884 20.7C240.284 20.7 246.518 23.2333 251.584 28.3C256.718 33.4333 259.284 39.6667 259.284 47C259.284 54.3333 256.718 60.5667 251.584 65.7ZM217.284 47C217.284 51.5333 218.784 55.3 221.784 58.3C224.784 61.3 228.484 62.8 232.884 62.8C237.284 62.8 240.984 61.3 243.984 58.3C246.984 55.3 248.484 51.5333 248.484 47C248.484 42.4667 246.984 38.7 243.984 35.7C240.984 32.7 237.284 31.2 232.884 31.2C228.484 31.2 224.784 32.7 221.784 35.7C218.784 38.7 217.284 42.4667 217.284 47ZM261.797 22L305.297 22V32.4H288.997V72H278.197V32.4H261.797V22ZM323.405 39H334.405C339.805 39 344.171 40.5333 347.505 43.6C350.905 46.6 352.605 50.5667 352.605 55.5C352.605 60.3667 350.905 64.3333 347.505 67.4C344.171 70.4667 339.805 72 334.405 72H312.605V22H323.405V39ZM358.605 72V22H369.405V72H358.605ZM323.405 62.3H334.505C336.638 62.3 338.405 61.6667 339.805 60.4C341.271 59.1333 342.005 57.5 342.005 55.5C342.005 53.5 341.305 51.8667 339.905 50.6C338.505 49.3333 336.705 48.7 334.505 48.7H323.405V62.3ZM403.341 46.5L426.141 72H413.241L392.741 48.9V72H381.941V22H392.741V44.1L412.141 22H425.341L403.341 46.5ZM469.002 29.1V22L479.802 22V72H469.002V64.8C464.935 70.4667 459.102 73.3 451.502 73.3C444.635 73.3 438.768 70.7667 433.902 65.7C429.035 60.6333 426.602 54.4 426.602 47C426.602 39.6 429.035 33.3667 433.902 28.3C438.768 23.2333 444.635 20.7 451.502 20.7C459.102 20.7 464.935 23.5 469.002 29.1ZM441.902 58.5C444.902 61.5 448.668 63 453.202 63C457.735 63 461.502 61.5 464.502 58.5C467.502 55.4333 469.002 51.6 469.002 47C469.002 42.4 467.502 38.6 464.502 35.6C461.502 32.5333 457.735 31 453.202 31C448.668 31 444.902 32.5333 441.902 35.6C438.902 38.6 437.402 42.4 437.402 47C437.402 51.5333 438.902 55.3667 441.902 58.5ZM496.29 22H534.59V72H523.79V32.4H507.09V51C507.09 58.8 505.39 64.4 501.99 67.8C498.59 71.2 493.623 72.6 487.09 72V61.9C490.157 62.4333 492.457 61.8 493.99 60C495.523 58.1333 496.29 54.9667 496.29 50.5V22ZM557.775 53.7L583.375 22H591.675V72H581.075V40.2L555.475 72H547.175V22H557.775V53.7ZM627.806 73.3C620.273 73.3 613.973 70.7667 608.906 65.7C603.906 60.5667 601.406 54.3333 601.406 47C601.406 39.5333 603.906 33.3 608.906 28.3C613.973 23.2333 620.273 20.7 627.806 20.7C632.673 20.7 637.106 21.8667 641.106 24.2C645.106 26.5333 648.106 29.6667 650.106 33.6L640.806 39C639.673 36.6 637.94 34.7333 635.606 33.4C633.34 32 630.706 31.3 627.706 31.3C623.306 31.3 619.606 32.8 616.606 35.8C613.673 38.8667 612.206 42.6 612.206 47C612.206 51.4 613.673 55.1333 616.606 58.2C619.606 61.2 623.306 62.7 627.706 62.7C630.64 62.7 633.273 62.0333 635.606 60.7C638.006 59.3 639.806 57.4 641.006 55L650.306 60.3C648.173 64.3 645.073 67.4667 641.006 69.8C637.006 72.1333 632.606 73.3 627.806 73.3ZM669.205 39H680.205C685.605 39 689.972 40.5333 693.305 43.6C696.705 46.6 698.405 50.5667 698.405 55.5C698.405 60.3667 696.705 64.3333 693.305 67.4C689.972 70.4667 685.605 72 680.205 72H658.405V22L669.205 22V39ZM669.205 62.3H680.305C682.439 62.3 684.205 61.6667 685.605 60.4C687.072 59.1333 687.805 57.5 687.805 55.5C687.805 53.5 687.105 51.8667 685.705 50.6C684.305 49.3333 682.505 48.7 680.305 48.7H669.205V62.3ZM732.434 50H720.934C720.934 47.3333 721.534 44.8333 722.734 42.5C723.934 40.1 725.4 38.0667 727.134 36.4C728.867 34.6667 730.6 33.0333 732.334 31.5C734.067 29.9 735.534 28.1667 736.734 26.3C737.934 24.4333 738.534 22.5333 738.534 20.6C738.534 17.8667 737.567 15.7333 735.634 14.2C733.7 12.6667 731.1 11.9 727.834 11.9C724.7 11.9 722 12.7 719.734 14.3C717.467 15.9 715.834 18.1667 714.834 21.1L704.934 15.5C706.734 10.8333 709.7 7.2 713.834 4.6C718.034 2 722.8 0.699994 728.134 0.699994C734.134 0.699994 739.267 2.39999 743.534 5.79999C747.867 9.2 750.034 13.9 750.034 19.9C750.034 22.6333 749.434 25.2333 748.234 27.7C747.034 30.1667 745.567 32.2667 743.834 34C742.1 35.7333 740.367 37.4333 738.634 39.1C736.9 40.7 735.434 42.4333 734.234 44.3C733.034 46.1667 732.434 48.0667 732.434 50ZM726.734 58.2C728.8 58.2 730.567 58.9333 732.034 60.4C733.5 61.8667 734.234 63.6333 734.234 65.7C734.234 67.7667 733.5 69.5333 732.034 71C730.567 72.4667 728.8 73.2 726.734 73.2C724.667 73.2 722.9 72.4667 721.434 71C719.967 69.5333 719.234 67.7667 719.234 65.7C719.234 63.6333 719.934 61.8667 721.334 60.4C722.8 58.9333 724.6 58.2 726.734 58.2ZM34.9 153.3C39.8333 155.633 42.3 159.467 42.3 164.8C42.3 169.067 40.8333 172.5 37.9 175.1C35.0333 177.7 31.0333 179 25.9 179H0.3L0.3 129H23.9C28.9667 129 32.9333 130.267 35.8 132.8C38.6667 135.333 40.1 138.667 40.1 142.8C40.1 147.533 38.3667 151.033 34.9 153.3ZM23.1 138.2H10.6V149.3H23.1C27.5 149.3 29.7 147.433 29.7 143.7C29.7 140.033 27.5 138.2 23.1 138.2ZM10.6 169.6H24.9C29.4333 169.6 31.7 167.633 31.7 163.7C31.7 161.967 31.1 160.633 29.9 159.7C28.7 158.7 27.0333 158.2 24.9 158.2H10.6V169.6ZM79.3813 127.7C86.1813 127.7 92.0479 130.267 96.9813 135.4C101.848 140.467 104.281 146.667 104.281 154C104.281 161.4 101.848 167.633 96.9813 172.7C92.1146 177.767 86.2479 180.3 79.3813 180.3C71.8479 180.3 66.0146 177.5 61.8813 171.9V199H51.0813L51.0813 129H61.8813V136.2C65.9479 130.533 71.7813 127.7 79.3813 127.7ZM66.3813 165.5C69.3813 168.5 73.1479 170 77.6813 170C82.2146 170 85.9813 168.5 88.9813 165.5C91.9813 162.433 93.4813 158.6 93.4813 154C93.4813 149.4 91.9813 145.6 88.9813 142.6C85.9813 139.533 82.2146 138 77.6813 138C73.1479 138 69.3813 139.533 66.3813 142.6C63.3813 145.6 61.8813 149.4 61.8813 154C61.8813 158.533 63.3813 162.367 66.3813 165.5ZM133.016 165.4L145.816 129H157.316L138.116 180.6C135.783 186.933 132.516 191.667 128.316 194.8C124.116 197.933 119.25 199.333 113.716 199V188.9C120.116 189.3 124.55 186.1 127.016 179.3L127.316 178.6L106.316 129H117.816L133.016 165.4ZM185.316 180.3C177.716 180.3 171.45 177.833 166.516 172.9C161.716 167.9 159.316 161.533 159.316 153.8C159.316 145.4 160.583 138.867 163.116 134.2C165.583 129.6 170.716 125.367 178.516 121.5C178.783 121.367 179.216 121.167 179.816 120.9C180.483 120.567 181.183 120.233 181.916 119.9C182.65 119.567 183.383 119.233 184.116 118.9C186.916 117.633 188.65 116.833 189.316 116.5C189.716 116.3 190.883 115.567 192.816 114.3C195.15 112.633 196.716 110.267 197.516 107.2L206.316 112.3C205.983 115.967 203.683 119.333 199.416 122.4C198.683 123.067 197.316 123.867 195.316 124.8L191.016 126.8L186.016 128.9C181.683 130.633 178.483 132.4 176.416 134.2C174.35 136 172.916 138.3 172.116 141.1C176.116 136.567 181.55 134.3 188.416 134.3C194.283 134.3 199.383 136.4 203.716 140.6C208.116 144.8 210.316 150.233 210.316 156.9C210.316 163.7 207.983 169.3 203.316 173.7C198.716 178.1 192.716 180.3 185.316 180.3ZM185.216 170.2C189.416 170.2 192.85 168.967 195.516 166.5C198.183 163.967 199.516 160.767 199.516 156.9C199.516 152.967 198.183 149.733 195.516 147.2C192.916 144.667 189.516 143.4 185.316 143.4C181.583 143.4 178.216 144.6 175.216 147C172.216 149.267 170.716 152.4 170.716 156.4C170.716 160.4 172.116 163.7 174.916 166.3C177.716 168.9 181.15 170.2 185.216 170.2ZM258.455 136.1V129H269.255V179H258.455V171.8C254.388 177.467 248.555 180.3 240.955 180.3C234.088 180.3 228.221 177.767 223.355 172.7C218.488 167.633 216.055 161.4 216.055 154C216.055 146.6 218.488 140.367 223.355 135.3C228.221 130.233 234.088 127.7 240.955 127.7C248.555 127.7 254.388 130.5 258.455 136.1ZM231.355 165.5C234.355 168.5 238.121 170 242.655 170C247.188 170 250.955 168.5 253.955 165.5C256.955 162.433 258.455 158.6 258.455 154C258.455 149.4 256.955 145.6 253.955 142.6C250.955 139.533 247.188 138 242.655 138C238.121 138 234.355 139.533 231.355 142.6C228.355 145.6 226.855 149.4 226.855 154C226.855 158.533 228.355 162.367 231.355 165.5ZM318.043 122H290.043V112.6H318.043V122ZM292.443 160.7L318.043 129H326.343V179H315.743V147.2L290.143 179H281.843V129H292.443V160.7ZM333.574 129H377.074V139.4H360.774V179H349.974V139.4H333.574V129ZM430.729 158.6H390.929C391.729 162.333 393.529 165.233 396.329 167.3C399.196 169.367 402.729 170.4 406.929 170.4C412.596 170.4 416.896 168.333 419.829 164.2L428.729 169.4C423.862 176.667 416.562 180.3 406.829 180.3C398.762 180.3 392.196 177.833 387.129 172.9C382.129 167.9 379.629 161.6 379.629 154C379.629 146.6 382.096 140.367 387.029 135.3C391.896 130.233 398.229 127.7 406.029 127.7C413.296 127.7 419.296 130.267 424.029 135.4C428.762 140.533 431.129 146.767 431.129 154.1C431.129 155.433 430.996 156.933 430.729 158.6ZM390.829 149.8H420.229C419.496 145.867 417.829 142.833 415.229 140.7C412.696 138.567 409.596 137.5 405.929 137.5C401.929 137.5 398.596 138.6 395.929 140.8C393.262 143 391.562 146 390.829 149.8ZM505.632 129H516.632V179H506.132V146.1L491.732 169H490.432L476.132 146.2V179H465.632V129H476.632L491.132 152.1L505.632 129ZM550.009 165.4L562.809 129H574.309L555.109 180.6C552.775 186.933 549.509 191.667 545.309 194.8C541.109 197.933 536.242 199.333 530.709 199V188.9C537.109 189.3 541.542 186.1 544.009 179.3L544.309 178.6L523.309 129H534.809L550.009 165.4ZM608.185 153.4C613.518 155.8 616.185 159.767 616.185 165.3C616.185 169.633 614.418 173.233 610.885 176.1C607.352 178.9 602.552 180.3 596.485 180.3C586.418 180.3 579.618 176.3 576.085 168.3L584.885 163.1C586.685 168.1 590.585 170.6 596.585 170.6C599.385 170.6 601.585 170.033 603.185 168.9C604.785 167.7 605.585 166.133 605.585 164.2C605.585 162.467 604.952 161.1 603.685 160.1C602.418 159.033 600.652 158.5 598.385 158.5H591.285V149H596.585C598.785 149 600.485 148.5 601.685 147.5C602.952 146.433 603.585 145 603.585 143.2C603.585 141.467 602.885 140.067 601.485 139C600.085 137.867 598.218 137.3 595.885 137.3C590.885 137.3 587.418 139.5 585.485 143.9L576.685 138.9C580.352 131.433 586.685 127.7 595.685 127.7C601.285 127.7 605.718 129.133 608.985 132C612.318 134.8 613.985 138.233 613.985 142.3C613.985 147.3 612.052 151 608.185 153.4ZM628.126 129H666.426V179H655.626V139.4H638.926V158C638.926 165.8 637.226 171.4 633.826 174.8C630.426 178.2 625.459 179.6 618.926 179V168.9C621.992 169.433 624.292 168.8 625.826 167C627.359 165.133 628.126 161.967 628.126 157.5V129ZM721.311 172.7C716.244 177.767 710.011 180.3 702.611 180.3C695.211 180.3 688.978 177.767 683.911 172.7C678.778 167.567 676.211 161.333 676.211 154C676.211 146.667 678.778 140.433 683.911 135.3C688.978 130.233 695.211 127.7 702.611 127.7C710.011 127.7 716.244 130.233 721.311 135.3C726.444 140.433 729.011 146.667 729.011 154C729.011 161.333 726.444 167.567 721.311 172.7ZM687.011 154C687.011 158.533 688.511 162.3 691.511 165.3C694.511 168.3 698.211 169.8 702.611 169.8C707.011 169.8 710.711 168.3 713.711 165.3C716.711 162.3 718.211 158.533 718.211 154C718.211 149.467 716.711 145.7 713.711 142.7C710.711 139.7 707.011 138.2 702.611 138.2C698.211 138.2 694.511 139.7 691.511 142.7C688.511 145.7 687.011 149.467 687.011 154Z" fill="#0C0FE9"/>
</svg>
