<svg width="553" height="179" viewBox="0 0 553 179" fill="none" xmlns="http://www.w3.org/2000/svg">
<path d="M12.3 2L56.8 2L56.8 52H46L46 12.2H23.1V52H12.3L12.3 2ZM117.631 31.6H77.8313C78.6313 35.3333 80.4313 38.2333 83.2313 40.3C86.0979 42.3667 89.6313 43.4 93.8313 43.4C99.4979 43.4 103.798 41.3333 106.731 37.2L115.631 42.4C110.765 49.6667 103.465 53.3 93.7313 53.3C85.6646 53.3 79.0979 50.8333 74.0313 45.9C69.0313 40.9 66.5313 34.6 66.5313 27C66.5313 19.6 68.9979 13.3667 73.9313 8.3C78.7979 3.23333 85.1313 0.699999 92.9313 0.699999C100.198 0.699999 106.198 3.26667 110.931 8.4C115.665 13.5333 118.031 19.7667 118.031 27.1C118.031 28.4333 117.898 29.9333 117.631 31.6ZM77.7312 22.8H107.131C106.398 18.8667 104.731 15.8333 102.131 13.7C99.5979 11.5667 96.4979 10.5 92.8313 10.5C88.8313 10.5 85.4979 11.6 82.8313 13.8C80.1646 16 78.4646 19 77.7312 22.8ZM155.834 0.699999C162.634 0.699999 168.501 3.26667 173.434 8.4C178.301 13.4667 180.734 19.6667 180.734 27C180.734 34.4 178.301 40.6333 173.434 45.7C168.568 50.7667 162.701 53.3 155.834 53.3C148.301 53.3 142.468 50.5 138.334 44.9V72L127.534 72V2H138.334V9.2C142.401 3.53333 148.234 0.699999 155.834 0.699999ZM142.834 38.5C145.834 41.5 149.601 43 154.134 43C158.668 43 162.434 41.5 165.434 38.5C168.434 35.4333 169.934 31.6 169.934 27C169.934 22.4 168.434 18.6 165.434 15.6C162.434 12.5333 158.668 11 154.134 11C149.601 11 145.834 12.5333 142.834 15.6C139.834 18.6 138.334 22.4 138.334 27C138.334 31.5333 139.834 35.3667 142.834 38.5ZM238.823 31.6H199.023C199.823 35.3333 201.623 38.2333 204.423 40.3C207.289 42.3667 210.823 43.4 215.023 43.4C220.689 43.4 224.989 41.3333 227.923 37.2L236.823 42.4C231.956 49.6667 224.656 53.3 214.923 53.3C206.856 53.3 200.289 50.8333 195.223 45.9C190.223 40.9 187.723 34.6 187.723 27C187.723 19.6 190.189 13.3667 195.123 8.3C199.989 3.23333 206.323 0.699999 214.123 0.699999C221.389 0.699999 227.389 3.26667 232.123 8.4C236.856 13.5333 239.223 19.7667 239.223 27.1C239.223 28.4333 239.089 29.9333 238.823 31.6ZM198.923 22.8H228.323C227.589 18.8667 225.923 15.8333 223.323 13.7C220.789 11.5667 217.689 10.5 214.023 10.5C210.023 10.5 206.689 11.6 204.023 13.8C201.356 16 199.656 19 198.923 22.8ZM290.773 2V41.8H297.473V65.4H286.873V52H252.573V65.4H241.973V41.8H248.073C251.139 37.5333 252.673 31.5 252.673 23.7V2H290.773ZM259.973 41.8H280.173V11.9H263.273V23.7C263.273 30.9 262.173 36.9333 259.973 41.8ZM365.845 26.3C370.779 28.6333 373.245 32.4667 373.245 37.8C373.245 42.0667 371.779 45.5 368.845 48.1C365.979 50.7 361.979 52 356.845 52H331.245V2H354.845C359.912 2 363.879 3.26667 366.745 5.8C369.612 8.33333 371.045 11.6667 371.045 15.8C371.045 20.5333 369.312 24.0333 365.845 26.3ZM354.045 11.2H341.545V22.3H354.045C358.445 22.3 360.645 20.4333 360.645 16.7C360.645 13.0333 358.445 11.2 354.045 11.2ZM341.545 42.6H355.845C360.379 42.6 362.645 40.6333 362.645 36.7C362.645 34.9667 362.045 33.6333 360.845 32.7C359.645 31.7 357.979 31.2 355.845 31.2H341.545V42.6ZM421.627 9.1V2L432.427 2V52H421.627V44.8C417.56 50.4667 411.727 53.3 404.127 53.3C397.26 53.3 391.393 50.7667 386.527 45.7C381.66 40.6333 379.227 34.4 379.227 27C379.227 19.6 381.66 13.3667 386.527 8.3C391.393 3.23333 397.26 0.699999 404.127 0.699999C411.727 0.699999 417.56 3.5 421.627 9.1ZM394.527 38.5C397.527 41.5 401.293 43 405.827 43C410.36 43 414.127 41.5 417.127 38.5C420.127 35.4333 421.627 31.6 421.627 27C421.627 22.4 420.127 18.6 417.127 15.6C414.127 12.5333 410.36 11 405.827 11C401.293 11 397.527 12.5333 394.527 15.6C391.527 18.6 390.027 22.4 390.027 27C390.027 31.5333 391.527 35.3667 394.527 38.5ZM485.015 2L496.015 2V52H485.515V19.1L471.115 42H469.815L455.515 19.2V52H445.015V2H456.015L470.515 25.1L485.015 2ZM519.091 33.7L544.691 2L552.991 2V52H542.391V20.2L516.791 52H508.491V2H519.091V33.7ZM23.1 109H60L52.7 150.7H59.6L55.7 172.4H47.1L49.5 159H12L9.6 172.4H0.9L4.8 150.7H11C15 146.3 17.7 140.133 19.1 132.2L23.1 109ZM21.2 150.7H44.1L50 117.1H30.3L27.7 132.2C26.3 139.8 24.1333 145.967 21.2 150.7ZM103.677 107.7C110.811 107.7 116.411 110.433 120.477 115.9C124.611 121.367 126.044 127.733 124.777 135C123.511 142.6 120.144 148.733 114.677 153.4C109.344 158 103.277 160.3 96.4773 160.3C92.2773 160.3 88.544 159.367 85.2773 157.5C82.0107 155.567 79.544 152.9 77.8773 149.5L72.6773 179H63.9773L76.2773 109H84.9773L83.6773 116.4C88.8773 110.6 95.544 107.7 103.677 107.7ZM116.077 134.4C117.011 129.267 116.044 124.933 113.177 121.4C110.377 117.867 106.444 116.1 101.377 116.1C96.244 116.1 91.744 117.733 87.8773 121C83.944 124.333 81.544 128.5 80.6773 133.5C79.6773 139.167 80.6773 143.667 83.6773 147C86.744 150.267 90.7773 151.9 95.7773 151.9C100.577 151.9 104.911 150.367 108.777 147.3C112.777 144.167 115.211 139.867 116.077 134.4ZM179.556 118.3L181.156 109H189.856L181.056 159H172.356L173.656 151.9C168.456 157.5 161.79 160.3 153.656 160.3C146.456 160.3 140.823 157.567 136.756 152.1C132.69 146.7 131.323 140.3 132.656 132.9C133.923 125.233 137.29 119.133 142.756 114.6C148.156 110 154.256 107.7 161.056 107.7C169.723 107.7 175.89 111.233 179.556 118.3ZM176.656 134.4C177.723 128.733 176.723 124.267 173.656 121C170.656 117.733 166.656 116.1 161.656 116.1C156.923 116.1 152.59 117.667 148.656 120.8C144.656 124 142.223 128.267 141.356 133.6C140.423 138.8 141.356 143.133 144.156 146.6C147.09 150.133 151.056 151.9 156.056 151.9C161.123 151.9 165.59 150.267 169.456 147C173.323 143.667 175.723 139.467 176.656 134.4ZM233.035 109H244.235L216.035 133.2L236.335 159H226.335L207.235 134.4L202.935 159H194.235L203.035 109H211.735L207.935 130.7L233.035 109ZM283.23 109H294.43L266.23 133.2L286.53 159H276.53L257.43 134.4L253.13 159H244.43L253.23 109H261.93L258.13 130.7L283.23 109ZM339.626 123.3C338.759 128.1 336.326 131.533 332.326 133.6C337.059 136.067 338.959 140.067 338.026 145.6C337.226 149.733 335.259 153 332.126 155.4C328.992 157.8 324.826 159 319.626 159H294.626L303.426 109H326.426C330.959 109 334.492 110.4 337.026 113.2C339.492 115.867 340.359 119.233 339.626 123.3ZM324.626 116.8H310.526L308.226 129.9H321.926C327.392 129.9 330.459 127.667 331.126 123.2C331.526 121.2 331.159 119.633 330.026 118.5C328.892 117.367 327.092 116.8 324.626 116.8ZM329.626 144.2C329.959 142.133 329.526 140.533 328.326 139.4C327.192 138.2 325.359 137.6 322.826 137.6H306.926L304.526 151.1H320.526C322.926 151.1 324.926 150.5 326.526 149.3C328.192 148.033 329.226 146.333 329.626 144.2ZM356.219 143.6L390.019 109H397.019L388.219 159H379.619L385.619 124.4L351.919 159H344.919L353.719 109H362.319L356.219 143.6ZM441.162 129.8L444.862 109H453.562L444.762 159H436.062L439.762 138.1H413.862L410.162 159H401.462L410.262 109H418.962L415.262 129.8H441.162ZM472.805 137H464.305L462.105 109V89H475.105V109L472.805 137ZM468.605 145.2C470.671 145.2 472.438 145.933 473.905 147.4C475.371 148.867 476.105 150.633 476.105 152.7C476.105 154.767 475.371 156.533 473.905 158C472.438 159.467 470.671 160.2 468.605 160.2C466.538 160.2 464.771 159.467 463.305 158C461.838 156.533 461.105 154.767 461.105 152.7C461.105 150.633 461.805 148.867 463.205 147.4C464.671 145.933 466.471 145.2 468.605 145.2Z" fill="#0C0FE9"/>
<path d="M6 179L455.762 179V184L6 184V179Z" fill="#0C0FE9"/>
</svg>
